<?xml version="1.0" encoding="utf-8"?>
<!-- Generator: Adobe Illustrator 23.0.0, SVG Export Plug-In . SVG Version: 6.00 Build 0)  -->
<svg version="1.1" id="Layer_1" xmlns="http://www.w3.org/2000/svg" xmlns:xlink="http://www.w3.org/1999/xlink" x="0px" y="0px"
	 viewBox="0 0 200 200" style="enable-background:new 0 0 200 200;" xml:space="preserve">
<style type="text/css">
	.st0{fill:#50CB93;}
	.st1{fill:none;stroke:#FFFFFF;stroke-width:4.89;stroke-linecap:square;stroke-miterlimit:10;}
	.st2{fill:none;stroke:#FFFFFF;stroke-width:4.89;stroke-miterlimit:10;}
</style>
<circle class="st0" cx="100" cy="97.9" r="97.9"/>
<path class="st1" d="M110,93.2l-4.9-8.5"/>
<path class="st1" d="M77.1,55.7l17-9.8l19.5,33.9l-8.5,4.9l-8.5,4.9L77.1,55.7z"/>
<path class="st1" d="M103,119.8l33.8-19.5"/>
<path class="st1" d="M146.6,149.3H58.4v-9.8c0-10.8,8.8-19.6,19.6-19.6c10.8,0,19.6,8.8,19.6,19.6c0,0,0,0,0,0v9.8"/>
<path class="st2" d="M101.4,58.6L72.3,75.4c-6.9,4.2-11.7,11.1-13.3,19c-0.8,3.9-0.8,7.9,0,11.8c0.8,3.9,2.4,7.6,4.7,10.9l3.8,5.8"
	/>
</svg>
