<?xml version="1.0" encoding="utf-8"?>
<!-- Generator: Adobe Illustrator 23.0.0, SVG Export Plug-In . SVG Version: 6.00 Build 0)  -->
<svg version="1.1" id="Layer_1" xmlns="http://www.w3.org/2000/svg" xmlns:xlink="http://www.w3.org/1999/xlink" x="0px" y="0px"
	 viewBox="0 0 200 200" style="enable-background:new 0 0 200 200;" xml:space="preserve">
<style type="text/css">
	.st0{fill:#7F30FF;}
	.st1{clip-path:url(#SVGID_2_);}
	.st2{fill:#FFFFFF;}
</style>
<circle class="st0" cx="97.8" cy="97.9" r="97.9"/>
<g>
	<defs>
		<rect id="SVGID_1_" x="61.1" y="39.2" width="73.4" height="117.5"/>
	</defs>
	<clipPath id="SVGID_2_">
		<use xlink:href="#SVGID_1_"  style="overflow:visible;"/>
	</clipPath>
	<g class="st1">
		<path class="st2" d="M132,150.6l-19.5-23.2V86.9h2.4c1,0,2-0.4,2.7-1.1c0.7-0.7,1-1.6,1-2.6c0-1-0.3-1.9-1-2.6
			c-0.7-0.7-1.7-1-2.7-1h-6.1c-1,0-1.9,0.3-2.6,1c-0.7,0.7-1.1,1.6-1.1,2.6v45.5c0,0.9,0.3,1.8,0.9,2.5l15,18H74.5l15-18
			c0.6-0.7,0.9-1.6,0.9-2.5V83.2c0-1-0.4-2-1.1-2.6c-0.7-0.7-1.6-1-2.6-1h-6c-1,0-1.9,0.3-2.7,1c-0.7,0.7-1,1.6-1,2.6
			c0,1,0.3,1.9,1,2.6c0.7,0.7,1.6,1.1,2.7,1.1h2.4v40.5l-19.5,23.2c-1.1,1-1.3,2.6-0.7,3.9c0.3,0.7,0.8,1.2,1.4,1.6
			c0.6,0.4,1.3,0.6,2,0.6h63.1c1.4,0.1,2.8-0.8,3.3-2.2C133.4,153.1,133.1,151.6,132,150.6z M94.2,75.9c4.1-0.1,7.3-3.3,7.3-7.4
			c0-1.9-0.8-3.8-2.2-5.2c-1.4-1.4-3.2-2.2-5.2-2.1c-1,0-2,0.2-2.9,0.6c-0.9,0.4-1.7,0.9-2.3,1.6c-0.7,0.7-1.2,1.5-1.6,2.3
			c-0.4,0.9-0.6,1.9-0.6,2.9c0,0.4,0,0.9,0.1,1.3c0.1,0.4,0.2,0.8,0.3,1.2c0.2,0.4,0.3,0.8,0.6,1.2c0.2,0.4,0.5,0.7,0.8,1
			c0.3,0.3,0.5,0.6,0.9,0.9c0.3,0.3,0.6,0.5,1,0.8c0.4,0.2,0.8,0.4,1.2,0.6c0.4,0.2,0.8,0.3,1.2,0.3C93.3,75.8,93.7,75.9,94.2,75.9z
			 M118.1,65c7.1,0,12.9-5.8,12.9-12.9c0-7.1-5.7-12.9-12.9-12.9s-12.9,5.7-12.9,12.9c0,3.5,1.4,6.8,3.8,9.2
			C111.4,63.7,114.7,65,118.1,65z M118.1,46.5c0.7,0,1.5,0.1,2.2,0.4c0.6,0.3,1.2,0.6,1.7,1.1c0.5,0.5,0.9,1.1,1.2,1.8
			c0.3,0.7,0.4,1.4,0.4,2.2c0,3.1-2.5,5.5-5.5,5.5c0,0,0,0,0,0c-1,0-1.9-0.2-2.7-0.7c-0.8-0.5-1.5-1.2-2-2c-0.5-0.8-0.7-1.8-0.7-2.8
			C112.5,49,115,46.5,118.1,46.5L118.1,46.5z"/>
	</g>
</g>
</svg>
