<?xml version="1.0" encoding="utf-8"?>
<!-- Generator: Adobe Illustrator 23.0.0, SVG Export Plug-In . SVG Version: 6.00 Build 0)  -->
<svg version="1.1" id="Layer_1" xmlns="http://www.w3.org/2000/svg" xmlns:xlink="http://www.w3.org/1999/xlink" x="0px" y="0px"
	 viewBox="0 0 200 200" style="enable-background:new 0 0 200 200;" xml:space="preserve">
<style type="text/css">
	.st0{fill:#FF0000;fill-opacity:0.76;}
	.st1{fill:none;stroke:#FFFFFF;stroke-width:4.91;stroke-linecap:round;stroke-linejoin:round;}
</style>
<circle class="st0" cx="98.1" cy="97.6" r="98.2"/>
<path class="st1" d="M135,53.4H61.3c-4.1,0-7.4,3.3-7.4,7.3c0,0,0,0,0,0v73.7c0,4.1,3.3,7.4,7.3,7.4c0,0,0,0,0,0H135
	c4.1,0,7.4-3.3,7.4-7.3c0,0,0,0,0,0V60.7C142.4,56.7,139.1,53.4,135,53.4C135,53.4,135,53.4,135,53.4z"/>
<path class="st1" d="M71.1,114.8V80.4h19.6"/>
<path class="st1" d="M71.1,97.6h18.4"/>
<path class="st1" d="M71.1,114.8h18.4"/>
<path class="st1" d="M103.1,114.8V85.3"/>
<path class="st1" d="M103.1,114.8v-16c0-6.1,5-11,11.1-11c6.1,0,11,4.9,11,11v16"/>
</svg>
