<?xml version="1.0" encoding="utf-8"?>
<!-- Generator: Adobe Illustrator 23.0.0, SVG Export Plug-In . SVG Version: 6.00 Build 0)  -->
<svg version="1.1" id="Layer_1" xmlns="http://www.w3.org/2000/svg" xmlns:xlink="http://www.w3.org/1999/xlink" x="0px" y="0px"
	 viewBox="0 0 200 200" style="enable-background:new 0 0 200 200;" xml:space="preserve">
<style type="text/css">
	.st0{fill:#F5F5F5;}
	.st1{fill:#EBEBEB;fill-opacity:0.8;}
	.st2{fill:#E0E0E0;}
	.st3{fill:#597481;}
	.st4{fill:#7F30FF;}
	.st5{opacity:0.45;fill:#FFFFFF;enable-background:new    ;}
	.st6{opacity:5.000000e-02;}
	.st7{opacity:5.000000e-02;enable-background:new    ;}
	.st8{fill:#EBEBEB;}
	.st9{fill:#FAFAFA;}
	.st10{opacity:0.3;enable-background:new    ;}
	.st11{opacity:0.6;}
	.st12{opacity:0.6;enable-background:new    ;}
	.st13{opacity:0.5;enable-background:new    ;}
	.st14{fill:#263238;}
	.st15{opacity:0.7;enable-background:new    ;}
	.st16{fill:#F0F0F0;}
	.st17{opacity:0.4;fill:#FFFFFF;enable-background:new    ;}
	.st18{opacity:0.1;enable-background:new    ;}
	.st19{fill:#FFFFFF;}
	.st20{fill:#E6E6E6;}
	.st21{opacity:0.5;fill:#FFFFFF;enable-background:new    ;}
	.st22{opacity:0.7;fill:#FFFFFF;enable-background:new    ;}
	.st23{opacity:0.3;fill:#FFFFFF;enable-background:new    ;}
	.st24{fill:#0094FF;}
	.st25{fill:#FFA8A7;}
	.st26{fill:#B16668;}
	.st27{fill:#F28F8F;}
	.st28{opacity:0.15;enable-background:new    ;}
</style>
<title>home-page-animated</title>
<path class="st0" d="M90.9,158.7c31.5,0,57-13.2,57-29.5s-25.5-29.5-57-29.5s-57,13.2-57,29.5S59.5,158.7,90.9,158.7z"/>
<path class="st1" d="M44.9,61l-2.2,1.3c0-0.1,0-0.2,0-0.3v-0.6c0-1.1-0.8-1.6-1.8-1c-0.4,0.3-0.8,0.6-1,1c-0.2-1.4-1.3-1.9-2.6-1.2
	c-1.6,1-2.5,2.7-2.6,4.6v1c0,0.4,0.1,0.7,0.2,1.1l-1.8,1c-0.3,0.2-0.5,0.4-0.7,0.7c-0.2,0.3-0.3,0.6-0.3,1c0,0.6,0.4,0.9,1,0.6
	l11.8-6.8c0.6-0.4,0.9-1,1-1.7C45.9,60.9,45.4,60.7,44.9,61z"/>
<path class="st1" d="M55.4,65.7l-1.6,1c0-0.1,0-0.1,0-0.2V66c0-0.8-0.6-1.2-1.3-0.8c-0.3,0.2-0.6,0.5-0.8,0.8c-0.1-1.1-1-1.5-2-0.9
	c-1.2,0.8-1.9,2-2,3.4v0.7c0,0.3,0.1,0.6,0.2,0.8l-1.4,0.8c-0.2,0.1-0.4,0.3-0.5,0.6c-0.1,0.2-0.2,0.5-0.2,0.7
	c0,0.5,0.3,0.7,0.7,0.4l8.9-5.1c0.2-0.1,0.4-0.3,0.5-0.6c0.1-0.2,0.2-0.5,0.2-0.7C56.1,65.7,55.8,65.5,55.4,65.7z"/>
<path class="st1" d="M146.5,38.1l-5.2,3c0-0.2,0-0.5,0-0.7v-1.5c0-2.7-1.9-3.8-4.2-2.4c-1,0.6-1.9,1.4-2.5,2.4
	c-0.4-3.3-3-4.6-6.2-2.8c-3.7,2.4-6,6.5-6.2,10.9v2.3c0,0.9,0.2,1.8,0.5,2.6l-4.3,2.5c-0.7,0.4-1.2,1-1.6,1.7
	c-0.4,0.7-0.6,1.5-0.7,2.3c0,1.5,1,2.1,2.3,1.3l28-16.2c1.4-0.9,2.2-2.4,2.3-4C148.9,38,147.8,37.3,146.5,38.1z"/>
<path class="st1" d="M171.4,49.3l-3.9,2.3c0-0.2,0-0.3,0-0.5v-1.1c0-2-1.4-2.8-3.1-1.8c-0.8,0.5-1.4,1.1-1.9,1.8
	c-0.3-2.5-2.3-3.5-4.7-2.1c-2.8,1.8-4.5,4.9-4.7,8.2v1.7c0,0.7,0.1,1.4,0.4,2l-3.3,1.9c-0.5,0.3-0.9,0.7-1.3,1.3
	c-0.3,0.5-0.5,1.1-0.5,1.7c0,1.1,0.8,1.6,1.7,1l21.2-12.2c1-0.7,1.7-1.8,1.8-3C173.2,49.2,172.4,48.7,171.4,49.3z"/>
<path class="st2" d="M125.8,126.8c6.9,0,12.4-3.2,12.4-7.2s-5.6-7.2-12.4-7.2s-12.4,3.2-12.4,7.2S118.9,126.8,125.8,126.8z"/>
<path class="st2" d="M73.4,150.6c-1.2,0.6,1.9,2.8,3.4,2l27.1-15.9l3.2-3.4c0,0,0.1-0.1,0.1-0.1c0,0,0-0.1,0-0.1
	c0,0-0.1-0.1-0.1-0.1c0,0-0.1,0-0.1,0l-6.2,1.9L73.4,150.6z"/>
<path class="st2" d="M50.3,145.6l-10.4-6c-0.6-0.3-0.6-0.9,0-1.2l58-33.5c0.7-0.3,1.5-0.3,2.1,0l10.4,6c0.6,0.3,0.6,0.9,0,1.2
	l-58,33.5c-0.3,0.2-0.7,0.2-1.1,0.3C51,145.9,50.7,145.8,50.3,145.6z"/>
<path class="st3" d="M117.1,113.5c0-0.1,0-0.1,0.1-0.2c0,0,0.1-0.1,0.1-0.1c0.3-0.2,0.6-0.2,0.9,0c0.1,0,0.1,0.1,0.1,0.1
	c0,0.1,0.1,0.1,0.1,0.2l-1.2,6.2c0,0,0,0.1,0,0.1c0,0-0.1,0.1-0.1,0.1c-0.2,0.1-0.5,0.1-0.7,0c0,0-0.1,0-0.1-0.1c0,0,0-0.1,0-0.1
	L117.1,113.5z"/>
<path class="st3" d="M134.3,113.5c0-0.1,0-0.1-0.1-0.2c0,0-0.1-0.1-0.1-0.1c-0.3-0.2-0.7-0.2-1,0c0,0-0.1,0.1-0.1,0.1
	c0,0-0.1,0.1-0.1,0.2l1.2,6.2c0,0,0,0.1,0,0.1c0,0,0.1,0.1,0.1,0.1c0.1,0.1,0.2,0.1,0.3,0.1c0.1,0,0.2,0,0.3-0.1c0,0,0.1,0,0.1-0.1
	c0,0,0-0.1,0-0.1L134.3,113.5z"/>
<path class="st3" d="M126.5,114.4c0-0.1,0-0.1-0.1-0.2c0,0-0.1-0.1-0.1-0.1c-0.3-0.2-0.6-0.2-0.9,0l-0.1,0.1c0,0.1-0.1,0.1-0.1,0.2
	l0.2,8.8c0,0,0,0.1,0,0.1c0,0,0.1,0.1,0.1,0.1c0.2,0.1,0.5,0.1,0.7,0c0,0,0.1,0,0.1-0.1c0,0,0-0.1,0-0.1L126.5,114.4z"/>
<path class="st4" d="M137.7,108.8L137.7,108.8c0-1.8-1.1-3.5-3.5-4.8c-4.6-2.7-12.2-2.7-16.8,0c-2.3,1.3-3.5,3.1-3.5,4.8v1
	c0,1.7,1.2,3.5,3.5,4.8c4.6,2.7,12.2,2.7,16.8,0c2.3-1.3,3.4-3,3.5-4.8L137.7,108.8z"/>
<path class="st4" d="M117.4,104c-4.6,2.7-4.6,7,0,9.7s12.2,2.7,16.8,0s4.6-7,0-9.7S122,101.3,117.4,104z"/>
<path class="st5" d="M117.4,104c-4.6,2.7-4.6,7,0,9.7s12.2,2.7,16.8,0s4.6-7,0-9.7S122,101.3,117.4,104z"/>
<g class="st6">
	<path class="st7" d="M128.4,107.7c1.5,0.9,1.5,2.2,0,3.1c-1.7,0.8-3.7,0.8-5.4,0c-1.5-0.9-1.5-2.2,0-3.1
		C124.7,106.8,126.7,106.8,128.4,107.7z"/>
</g>
<path class="st8" d="M123.4,109.4c-1.3-1.3-2-4.6-0.8-5.6h6.4c1.3,1,0.5,4.3-0.8,5.6l0,0l0,0l-0.1,0.1l0,0l-0.1,0.1l-0.2,0.1
	c-1.2,0.6-2.6,0.6-3.8,0l-0.2-0.1l-0.1-0.1l0,0l-0.1-0.1l0,0H123.4z"/>
<path class="st9" d="M128.4,103.3c1.5,0.8,1.5,2.2,0,3c-1.7,0.8-3.6,0.8-5.3,0c-1.5-0.8-1.5-2.2,0-3
	C124.8,102.5,126.8,102.5,128.4,103.3z"/>
<path class="st8" d="M127.4,103.9c0.5,0.2,0.8,0.8,0.5,1.3c-0.1,0.2-0.3,0.4-0.5,0.5c-0.5,0.2-1.1,0.4-1.6,0.4
	c-0.6,0-1.1-0.1-1.6-0.4c-0.5-0.2-0.8-0.8-0.5-1.3c0.1-0.2,0.3-0.4,0.5-0.5c0.5-0.3,1-0.4,1.6-0.4
	C126.3,103.5,126.9,103.7,127.4,103.9z"/>
<path class="st2" d="M124.2,104.8c0.5-0.3,1-0.4,1.6-0.4c0.6,0,1.1,0.1,1.6,0.4c0.2,0.1,0.4,0.3,0.5,0.5c-0.1,0.2-0.3,0.4-0.5,0.5
	c-0.5,0.2-1.1,0.4-1.6,0.4c-0.6,0-1.1-0.1-1.6-0.4c-0.2-0.1-0.4-0.3-0.5-0.5C123.8,105.1,124,104.9,124.2,104.8z"/>
<path class="st4" d="M127.2,105.3c0.5-0.5,0.9-1,1.2-1.5c0.5-1,0.6-2.2,0.4-2.4s-1.4,1.1-1.4,1.1c0.1-0.5,0.1-1.1,0.1-1.6
	c0-0.6-0.1-1.2-0.5-1.8c-0.2-0.2-0.8,0.9-1,1.7s-0.4,1.4-0.4,1.4c-0.1-0.6-0.2-1.2-0.4-1.8c-0.3-0.8-0.5-1-0.7-0.9s-0.3,0.4-0.4,1.5
	c0,0.5,0,1,0.1,1.5c0,0-0.4-0.4-0.8-0.9s-0.7-0.5-0.8-0.4s-0.2,0.8,0.6,2.2c0.4,0.7,0.9,1.3,1.4,1.9
	C125.3,105.7,126.3,105.7,127.2,105.3z"/>
<path class="st10" d="M127.2,105.3c0.5-0.5,0.9-1,1.2-1.5c0.5-1,0.6-2.2,0.4-2.4s-1.4,1.1-1.4,1.1c0.1-0.5,0.1-1.1,0.1-1.6
	c0-0.6-0.1-1.2-0.5-1.8c-0.2-0.2-0.8,0.9-1,1.7s-0.4,1.4-0.4,1.4c-0.1-0.6-0.2-1.2-0.4-1.8c-0.3-0.8-0.5-1-0.7-0.9s-0.3,0.4-0.4,1.5
	c0,0.5,0,1,0.1,1.5c0,0-0.4-0.4-0.8-0.9s-0.7-0.5-0.8-0.4s-0.2,0.8,0.6,2.2c0.4,0.7,0.9,1.3,1.4,1.9
	C125.3,105.7,126.3,105.7,127.2,105.3z"/>
<path class="st4" d="M85.3,136.3l8.9-5.2c0.8-0.3,1.3-1.1,1.4-1.9V128l-9.3-5.2c-0.3-0.2-0.5-0.4-0.6-0.7c-0.2-0.3-0.2-0.6-0.3-0.9
	v-11l-15.6,9v11c0,0.3,0.1,0.6,0.3,0.9c0.2,0.3,0.4,0.5,0.6,0.7l7.9,4.5C80.8,137.4,83.2,137.4,85.3,136.3z"/>
<g class="st11">
	<path class="st12" d="M85.3,136.3l8.9-5.2c0.8-0.3,1.3-1.1,1.4-1.9V128l-9.3-5.2c-0.3-0.2-0.5-0.4-0.6-0.7
		c-0.2-0.3-0.2-0.6-0.3-0.9v-11l-15.6,9v11c0,0.3,0.1,0.6,0.3,0.9c0.2,0.3,0.4,0.5,0.6,0.7l7.9,4.5
		C80.8,137.4,83.2,137.4,85.3,136.3z"/>
</g>
<path class="st10" d="M73.6,132.2v1.2l-2.8-1.6c-0.5-0.3-0.9-0.9-0.9-1.5v-11l3-1.7c0.1,0.8,0.1,1.5,0.2,2.3L71,121v8.6
	c0,0.3,0.1,0.6,0.3,0.9c0.2,0.3,0.4,0.5,0.6,0.7L73.6,132.2z"/>
<path class="st4" d="M71,129.6c0,0.3,0.1,0.6,0.3,0.9c0.2,0.3,0.4,0.5,0.6,0.7l6.8,3.9c2.1,1.1,4.6,1.1,6.7,0l8.9-5.1
	c1.8-1.1,1.8-2.8,0-3.8l-6.8-3.9c-0.3-0.2-0.5-0.4-0.6-0.7c-0.2-0.3-0.2-0.6-0.3-0.9V112L71,121V129.6z"/>
<path class="st10" d="M71,129.6c0,0.3,0.1,0.6,0.3,0.9c0.2,0.3,0.4,0.5,0.6,0.7l6.8,3.9c2.1,1.1,4.6,1.1,6.7,0l8.9-5.1
	c1.8-1.1,1.8-2.8,0-3.8l-6.8-3.9c-0.3-0.2-0.5-0.4-0.6-0.7c-0.2-0.3-0.2-0.6-0.3-0.9V112L71,121V129.6z"/>
<path class="st13" d="M89.3,123.2l-1.8-1.1c-0.3-0.2-0.5-0.4-0.6-0.7c-0.2-0.3-0.2-0.6-0.3-0.9V112L71,121v8.6
	c0,0.6,0.4,1.2,0.9,1.5l1.8,1L89.3,123.2z"/>
<path class="st4" d="M95.6,128v1.2c-0.1,0.8-0.6,1.6-1.4,1.9l-8.9,5.1c-1,0.5-2.1,0.8-3.2,0.8v-1.2c1.1,0,2.2-0.3,3.2-0.8l8.9-5.2
	C95,129.6,95.5,128.8,95.6,128z"/>
<path class="st13" d="M95.6,128v1.2c-0.1,0.8-0.6,1.6-1.4,1.9l-8.9,5.1c-1,0.5-2.1,0.8-3.2,0.8v-1.2c1.1,0,2.2-0.3,3.2-0.8l8.9-5.2
	C95,129.6,95.5,128.8,95.6,128z"/>
<path class="st4" d="M46,140.3c0.3,0.2,0.7,0.2,1.1,0.2c0.4,0,0.7-0.1,1.1-0.3l60.3-34.8c0.3-0.2,0.6-0.5,0.8-0.8
	c0.2-0.3,0.3-0.7,0.3-1.1V48.7c0-0.4-0.1-0.7-0.3-1.1c-0.2-0.3-0.4-0.6-0.8-0.8c-0.3-0.2-0.7-0.2-1.1-0.2c-0.4,0-0.7,0.1-1.1,0.3
	L46,81.6c-0.3,0.2-0.6,0.5-0.8,0.8c-0.2,0.3-0.3,0.7-0.3,1.1v54.9c0,0.4,0.1,0.7,0.3,1.1C45.4,139.8,45.7,140.1,46,140.3z"/>
<path class="st4" d="M48.1,140.2l60.3-34.8c0.3-0.2,0.6-0.5,0.8-0.8c0.2-0.3,0.3-0.7,0.3-1.1V48.6c0-0.7-0.5-1-1.1-0.6L48.1,82.8
	c-0.3,0.2-0.6,0.5-0.8,0.8C47.1,84,47,84.3,47,84.7v54.9C47,140.3,47.5,140.6,48.1,140.2z"/>
<path class="st13" d="M48.1,140.2l60.3-34.8c0.3-0.2,0.6-0.5,0.8-0.8c0.2-0.3,0.3-0.7,0.3-1.1V48.6c0-0.7-0.5-1-1.1-0.6L48.1,82.8
	c-0.3,0.2-0.6,0.5-0.8,0.8C47.1,84,47,84.3,47,84.7v54.9C47,140.3,47.5,140.6,48.1,140.2z"/>
<path class="st4" d="M47,136.4v4.4c0,0.7,0.5,1,1.1,0.6l60.3-34.8c0.3-0.2,0.6-0.5,0.8-0.8c0.2-0.3,0.3-0.7,0.3-1.1v-4.4L47,136.4z"
	/>
<path class="st10" d="M47,136.3v4.4c0,0.7,0.5,1,1.1,0.6l60.3-34.8c0.3-0.2,0.6-0.5,0.8-0.8c0.2-0.3,0.3-0.7,0.3-1.1v-4.4L47,136.3z
	"/>
<path class="st4" d="M49.1,130.8V85.4c0-0.2,0.1-0.5,0.2-0.7c0.1-0.2,0.3-0.4,0.5-0.5l57-32.9c0.4-0.2,0.7,0,0.7,0.4v45.4
	c0,0.2-0.1,0.5-0.2,0.7c-0.1,0.2-0.3,0.4-0.5,0.5l-57,32.9C49.4,131.4,49.1,131.2,49.1,130.8z"/>
<path class="st14" d="M49.1,130.8V85.4c0-0.2,0.1-0.5,0.2-0.7c0.1-0.2,0.3-0.4,0.5-0.5l57-32.9c0.4-0.2,0.7,0,0.7,0.4v45.4
	c0,0.2-0.1,0.5-0.2,0.7c-0.1,0.2-0.3,0.4-0.5,0.5l-57,32.9C49.4,131.4,49.1,131.2,49.1,130.8z"/>
<path class="st15" d="M47.3,83.6C47.1,84,47,84.3,47,84.7v51.6l-2.1-1.2V83.5c0-0.4,0.1-0.8,0.3-1.1L47.3,83.6z"/>
<path class="st10" d="M109.5,48.5c-0.1-0.6-0.5-0.8-1.1-0.5L48.1,82.8c-0.3,0.2-0.6,0.5-0.8,0.8l-2.1-1.2c0.2-0.3,0.4-0.6,0.8-0.8
	l60.3-34.8c0.3-0.2,0.7-0.3,1.1-0.3c0.4,0,0.7,0.1,1.1,0.2c0.3,0.2,0.5,0.4,0.7,0.7C109.3,47.8,109.4,48.1,109.5,48.5z"/>
<path class="st16" d="M54.8,135.1c-0.1,0.1-0.3,0.1-0.4,0.1c-0.2,0-0.4,0-0.6-0.1c-0.2-0.1-0.3-0.2-0.4-0.4
	c-0.1-0.2-0.1-0.4-0.1-0.5V91.8l1,0.6v42.4c0,0.3,0.1,0.4,0.3,0.4C54.6,135.2,54.7,135.1,54.8,135.1z"/>
<path class="st9" d="M112.1,101.4c0,0.2-0.1,0.4-0.2,0.5c-0.1,0.2-0.2,0.3-0.4,0.4l-56.7,32.8c-0.3,0.2-0.5,0-0.5-0.3v-46l1.5-0.9
	c0.3-0.2,0.8-2.8,1.1-3l13.2-7.6c0.3-0.2,1,1.8,1.3,1.6l40.7-23.5V101.4z"/>
<path class="st2" d="M111.8,55.8v45.5c0,0.1-0.1,0.3-0.1,0.4c-0.1,0.1-0.2,0.2-0.3,0.3l-56.7,32.8c0,0-0.1,0-0.1,0c0,0,0-0.1,0-0.1
	V89l1.4-0.8c0.2-0.1,0.4-0.6,0.7-1.7c0.1-0.5,0.2-1,0.4-1.4l13.1-7.6c0.2,0.2,0.3,0.4,0.4,0.7c0.3,0.6,0.6,1,0.8,1
	c0.1,0,0.1,0,0.2,0L111.8,55.8z M112.1,55.4L71.4,78.9l0,0c-0.3,0-1-1.7-1.3-1.7l0,0l-13.3,7.6c-0.3,0.2-0.8,2.8-1.1,3l-1.5,0.9v46
	c0,0.3,0.1,0.4,0.3,0.4c0.1,0,0.2,0,0.2-0.1l56.7-32.8c0.2-0.1,0.3-0.2,0.4-0.4c0.1-0.2,0.2-0.3,0.2-0.5V55.4z"/>
<path class="st4" d="M53.7,90.5c-0.3-0.2-0.5-0.6-0.5-1v-4.3c0-0.2,0.1-0.4,0.2-0.5c0.1-0.2,0.2-0.3,0.4-0.4l56.7-32.7
	c0.2-0.1,0.3-0.2,0.5-0.2c0.2,0,0.4,0,0.5,0.1c0.2,0.1,0.3,0.2,0.4,0.4c0.1,0.2,0.1,0.4,0.1,0.5v4.3c0,0.4-0.2,0.7-0.6,1L54.8,90.5
	c-0.2,0.1-0.3,0.1-0.5,0.1C54.1,90.6,53.9,90.6,53.7,90.5z"/>
<path class="st17" d="M112.1,52.4c0-0.3-0.3-0.4-0.6-0.2L54.8,84.9c-0.2,0.1-0.3,0.3-0.4,0.4l-1-0.6c0.1-0.2,0.2-0.3,0.4-0.4
	l56.7-32.7c0.2-0.1,0.3-0.2,0.5-0.2c0.2,0,0.4,0,0.5,0.1c0.2,0.1,0.3,0.2,0.4,0.4C112,52,112.1,52.2,112.1,52.4L112.1,52.4z"/>
<path class="st18" d="M54.4,85.3c-0.1,0.2-0.2,0.3-0.2,0.5v6.6l-1-0.6v-6.6c0,0,0-0.1,0-0.1c0-0.1,0.1-0.2,0.1-0.3L54.4,85.3z"/>
<path class="st4" d="M112.1,52.5v3L71.4,78.9c-0.3,0.2-0.6,0-0.6-0.3v-1.1c0-0.3-0.2-0.5-0.6-0.3l-13.4,7.7
	c-0.2,0.1-0.3,0.2-0.4,0.4c-0.1,0.2-0.2,0.3-0.2,0.5V87c0,0.2-0.1,0.4-0.2,0.5c-0.1,0.2-0.2,0.3-0.4,0.4l-1.5,0.9v-3
	c0-0.2,0.1-0.4,0.2-0.5c0.1-0.2,0.2-0.3,0.4-0.4l56.7-32.7C111.8,52,112.1,52.1,112.1,52.5z"/>
<path class="st19" d="M109.5,54.3c0.4-0.2,0.7,0,0.7,0.4c0,0.5-0.3,0.9-0.7,1.2c-0.4,0.2-0.7,0-0.7-0.4c0-0.2,0.1-0.5,0.2-0.7
	C109.1,54.6,109.3,54.4,109.5,54.3z"/>
<path class="st19" d="M107,55.8c0.4-0.2,0.7,0,0.7,0.4c0,0.2-0.1,0.5-0.2,0.7c-0.1,0.2-0.3,0.4-0.5,0.5c-0.4,0.2-0.7,0-0.7-0.4
	c0-0.2,0.1-0.5,0.2-0.7C106.6,56.1,106.8,55.9,107,55.8z"/>
<path class="st19" d="M104.5,57.2c0.4-0.2,0.7,0,0.7,0.4c0,0.2-0.1,0.5-0.2,0.7c-0.1,0.2-0.3,0.4-0.5,0.5c-0.4,0.2-0.7,0-0.7-0.4
	c0-0.2,0.1-0.5,0.2-0.7C104.1,57.5,104.3,57.3,104.5,57.2z"/>
<path class="st20" d="M112.1,55.4V59L54.3,92.4v-3.6l1.1-0.7c0.3-0.2,0.4-0.4,0.5-1l0.4-1.3c0.1-0.5,0.2-0.8,0.5-0.9l13.2-7.6
	c0.3-0.2,0.6-0.2,0.8,0.2l0.5,0.9c0.2,0.3,0.3,0.5,0.6,0.3L112.1,55.4z"/>
<path class="st2" d="M54.3,88.8v3.6l-1-0.6v-3.6L54.3,88.8z"/>
<path class="st4" d="M56.8,89.1l-0.9,0.5l0.3-0.6c0,0,0-0.1,0-0.1c0,0,0-0.1,0-0.1c0,0-0.1,0-0.1,0l-0.5,0.9l0,0l0,0l0,0l0,0l0,0
	l0.5,0.4h0c0,0,0,0,0-0.1c0,0,0-0.1,0-0.2l-0.3-0.3L56.8,89.1C56.8,89.1,56.8,89,56.8,89.1c0-0.1,0-0.1,0-0.1
	C56.8,88.9,56.8,89.1,56.8,89.1z"/>
<path class="st4" d="M57.5,88.7l0.9-0.5l-0.3-0.3c0,0,0,0,0-0.1c0,0,0-0.1,0-0.1c0-0.1,0.1-0.1,0.1-0.1l0.5,0.4l0,0v0.1l0,0L58.2,89
	l0,0l0,0c0,0,0-0.1,0-0.1c0,0,0-0.1,0-0.1l0.3-0.6L57.5,88.7C57.6,88.7,57.5,88.7,57.5,88.7C57.5,88.6,57.5,88.7,57.5,88.7
	C57.5,88.5,57.5,88.7,57.5,88.7z"/>
<path class="st4" d="M60.4,86.2C60.4,86.1,60.4,86.1,60.4,86.2l-0.2,0.3c-0.2,0-0.5,0.2-0.6,0.5c-0.2,0.4-0.2,0.8,0,1.2
	c0.1,0,0.1,0.1,0.2,0.1c0.1,0,0.1,0,0.2-0.1c0.2-0.1,0.3-0.3,0.4-0.5c0-0.1,0-0.1,0-0.2c0,0-0.1,0-0.1,0.1c-0.2,0.3-0.4,0.5-0.6,0.3
	c-0.2-0.3-0.2-0.6,0-0.9c0.1-0.2,0.3-0.4,0.4-0.4L60,86.9l0,0.1l0.3-0.2l0,0l0,0L60.4,86.2z"/>
<path class="st4" d="M69.7,78.9l0.3-0.7c0,0,0-0.1,0-0.1c0,0,0-0.1,0-0.1c0,0-0.1,0-0.1,0.1l-0.3,0.7l-0.3-0.3c0,0-0.1,0-0.1,0.1
	c0,0,0,0.1,0,0.1c0,0,0,0.1,0,0.1l0.3,0.3l-0.3,0.7c0,0,0,0.1,0,0.1c0,0,0,0.1,0,0.1h0.1c0,0,0.1,0,0.1-0.1l0.3-0.7l0.3,0.3H70
	c0,0,0.1,0,0.1-0.1c0,0,0-0.1,0-0.1c0,0,0-0.1,0-0.1L69.7,78.9z"/>
<path class="st9" d="M61.5,87v-1.2c0-0.4,0.2-0.7,0.6-0.9l46.3-26.8c0.3-0.2,0.6,0,0.6,0.3v1.1c0,0.2-0.1,0.4-0.2,0.5
	c-0.1,0.2-0.2,0.3-0.4,0.4L62.1,87.3C61.8,87.5,61.5,87.3,61.5,87z"/>
<path class="st2" d="M107.7,60.6L107.7,60.6c-0.1,0-0.1,0-0.1-0.1c0,0,0-0.1,0-0.1V60l-0.2-0.2v-0.1c0,0,0,0,0-0.1c0,0,0-0.1,0-0.1
	c0,0,0-0.1,0.1-0.1l0.3-0.3l0,0l0.1-0.5c0,0,0-0.1,0.1-0.1c0,0,0.1-0.1,0.1-0.1h0.1c0,0,0,0,0,0.1l0.1,0.3l0.3-0.1h0.1
	c0,0,0,0,0.1,0c0,0.1,0,0.2,0,0.2l-0.2,0.4l0,0l0.1,0.4c0,0,0,0.1,0,0.1l-0.1,0.1h-0.1h-0.1H108l-0.3,0.4L107.7,60.6
	C107.7,60.6,107.7,60.6,107.7,60.6z M107.5,59.7l0.2,0.2c0,0,0,0,0,0.1c0,0,0,0.1,0,0.1v0.3l0.2-0.2c0,0,0,0,0.1-0.1h0.1h0.3l0,0
	l-0.1-0.4c0,0,0-0.1,0-0.1l0.2-0.4l-0.2,0.1h-0.1c0,0-0.1,0-0.1-0.1l-0.1-0.2l-0.1,0.4c0,0,0,0.1-0.1,0.1L107.5,59.7L107.5,59.7z"/>
<path class="st4" d="M109.6,58c0,0-0.1,0-0.1,0c0,0-0.1-0.1-0.1-0.1c0,0,0-0.1,0-0.1c0,0,0.1-0.1,0.1-0.1l1.6-0.9c0,0,0,0,0.1,0h0.1
	h0.1l0.1,0.1c0,0,0,0.1,0,0.1c0,0,0,0,0,0.1c0,0,0,0,0,0.1h-0.1l-1.6,0.9L109.6,58z"/>
<path class="st4" d="M109.6,58.9C109.6,58.9,109.6,58.9,109.6,58.9c-0.1,0-0.2,0-0.2-0.1c0,0,0-0.1,0-0.2c0,0,0-0.1,0.1-0.1l1.6-0.9
	h0.1h0.1c0,0,0,0,0.1,0v0.1c0,0,0,0,0,0.1c0,0,0,0,0,0.1c0,0,0,0,0,0.1v0l-1.6,0.9C109.7,58.9,109.7,58.9,109.6,58.9z"/>
<path class="st4" d="M109.6,59.8c0,0-0.1,0-0.1,0c0,0-0.1-0.1-0.1-0.1c0,0,0-0.1,0-0.1c0,0,0-0.1,0.1-0.1l1.6-0.9c0,0,0.1,0,0.1,0
	c0,0,0.1,0,0.1,0.1c0,0,0,0.1,0,0.1c0,0,0,0,0,0.1c0,0,0,0,0,0.1v0l-1.6,0.9L109.6,59.8z"/>
<path class="st4" d="M56,93.4c0,0-0.1,0-0.1,0c0,0-0.1-0.1-0.1-0.1c0,0,0-0.1,0-0.1c0,0,0-0.1,0.1-0.1l1.6-0.9c0,0,0.1,0,0.1,0
	c0.1,0,0.1,0,0.1,0.1c0,0,0,0.1,0,0.1c0,0,0,0.1-0.1,0.1L56,93.4C56,93.4,56,93.4,56,93.4z"/>
<path class="st4" d="M56,94.3C56,94.3,55.9,94.3,56,94.3c-0.1,0-0.2,0-0.2-0.1c0,0,0,0,0-0.1v-0.1c0,0,0,0,0-0.1l0,0l1.6-0.9h0.1
	c0,0,0,0,0.1,0h0.1v0.1c0,0,0,0,0,0.1c0,0,0,0.1,0,0.1v0.1h-0.1L56,94.3C56,94.3,56,94.3,56,94.3z"/>
<path class="st4" d="M56,95.2c0,0-0.1,0-0.1,0c0,0-0.1-0.1-0.1-0.1c0,0,0-0.1,0-0.1c0,0,0-0.1,0.1-0.1l1.6-0.9h0.1h0.1h0.1v0.1
	c0,0,0,0,0,0.1c0,0,0,0,0,0.1v0.1l-0.1,0.1L56,95.2C56,95.2,56,95.2,56,95.2z"/>
<path class="st20" d="M69.8,85.5v1.4c0,0.3,0.2,0.4,0.4,0.3l18.5-10.7V74L70.2,84.7c-0.1,0.1-0.2,0.2-0.3,0.3
	C69.8,85.2,69.8,85.3,69.8,85.5z"/>
<path class="st4" d="M91,72.7c0.2-0.2,0.4,0,0.4,0.3v1.4c0,0.2-0.1,0.3-0.1,0.4c-0.1,0.1-0.2,0.2-0.3,0.3l-2.3,1.3V74L91,72.7z"/>
<path class="st9" d="M90.9,74.6l-0.3-0.1c0-0.1,0-0.2,0-0.3c0-0.1,0-0.2-0.1-0.3c0-0.1-0.1-0.2-0.2-0.3c-0.1-0.1-0.3-0.1-0.4,0
	c-0.2,0.1-0.3,0.3-0.4,0.5c-0.1,0.2-0.1,0.4-0.1,0.6c0,0.1,0,0.2,0,0.3c0,0.1,0.1,0.2,0.2,0.3c0.1,0,0.1,0,0.2,0
	c0.1,0,0.2,0,0.2-0.1c0.2-0.1,0.3-0.3,0.4-0.6l0.3,0.1l0,0h0.1C90.8,74.7,90.8,74.7,90.9,74.6C90.8,74.6,90.8,74.6,90.9,74.6
	c-0.1,0-0.1,0-0.1,0L90.9,74.6z M90,75.1C90,75.1,90,75.1,90,75.1h-0.2c-0.1,0-0.1-0.1-0.1-0.2c0-0.1,0-0.1,0-0.2
	c0-0.2,0-0.3,0.1-0.5c0.1-0.2,0.2-0.3,0.3-0.4c0,0,0.1,0,0.1,0h0.1c0.1,0,0.1,0.1,0.1,0.2c0,0.1,0,0.1,0,0.2c0,0.2,0,0.3-0.1,0.5
	C90.3,74.8,90.2,75,90,75.1L90,75.1z"/>
<path class="st4" d="M62.1,89.4l-2.7,1.5c-0.1,0.1-0.2,0.2-0.3,0.3C59,91.4,59,91.6,59,91.7v1.4c0,0.3,0.2,0.4,0.4,0.3l2.7-1.6
	c0.1-0.1,0.2-0.2,0.3-0.3c0.1-0.1,0.1-0.3,0.1-0.4v-1.4C62.5,89.4,62.3,89.3,62.1,89.4z"/>
<path class="st4" d="M108.5,62.6c-0.3,0.2-0.6,0.5-0.7,0.8c-0.2,0.3-0.3,0.6-0.3,1c0,0.7,0.5,0.9,1,0.6c0.3-0.2,0.6-0.5,0.7-0.8
	c0.2-0.3,0.3-0.6,0.3-1C109.6,62.5,109.1,62.3,108.5,62.6z"/>
<path class="st19" d="M108.4,63.7L108.4,63.7c-0.1,0-0.2-0.1-0.2-0.1c0,0,0-0.1,0-0.1c0-0.1,0-0.2,0.1-0.3c0-0.1,0.1-0.2,0.2-0.2
	c0,0,0.1,0,0.1,0c0,0,0.1,0,0.1,0c0,0,0.1,0,0.1,0.1c0,0,0,0.1,0,0.1c0,0.2-0.1,0.4-0.3,0.5C108.5,63.7,108.4,63.7,108.4,63.7z"/>
<path class="st19" d="M108.9,63.7c-0.1,0-0.1,0-0.2,0c-0.1,0-0.1,0-0.2,0.1l-0.2,0.1c-0.1,0.1-0.3,0.2-0.3,0.4
	c-0.1,0.1-0.1,0.3-0.1,0.5v0.1c0.1,0,0.2,0,0.3,0c0.1,0,0.2,0,0.3-0.1c0.2-0.2,0.4-0.4,0.6-0.6l0,0c0-0.1,0-0.1,0-0.2
	C109,63.8,109,63.8,108.9,63.7z"/>
<path class="st4" d="M104.8,65.8v-0.4c0-0.4-0.3-0.6-0.6-0.4c-0.2,0.1-0.3,0.3-0.4,0.5c-0.1,0.2-0.2,0.4-0.2,0.6v0.3
	c0,0.2-0.1,0.4-0.2,0.6c0,0.1,0,0.1,0,0.2c0,0.1,0.1,0.2,0.2,0.1l1.3-0.8c0,0,0.1-0.1,0.1-0.1c0,0,0-0.1,0-0.2c0,0,0,0,0-0.1v-0.1
	c-0.1,0-0.1-0.1-0.2-0.2C104.9,66,104.8,65.9,104.8,65.8z"/>
<path class="st4" d="M104.5,66.9c0,0.1,0,0.2-0.1,0.3c0,0.1-0.1,0.2-0.2,0.2c-0.2,0.1-0.3,0-0.3-0.2L104.5,66.9z"/>
<path class="st4" d="M99.9,67.6c0.1,0,0.2-0.1,0.2-0.1c0.1,0,0.1,0,0.2,0c0.1,0,0.1,0.1,0.1,0.1c0,0.1,0,0.2,0,0.3
	c0,0.1,0,0.2,0,0.2c0,0.1,0,0.1-0.1,0.2l-0.1,0.2l-0.1,0.2l-0.1,0.2c0,0.1,0,0.1,0,0.2c0,0,0,0.1,0,0.1v0.1l-0.3,0.2l0,0l0,0l0,0
	c0-0.1,0-0.1,0-0.2c0-0.1,0-0.1,0.1-0.2c0-0.1,0.1-0.1,0.1-0.2l0.1-0.2c0,0,0.1-0.1,0.1-0.2c0,0,0-0.1,0-0.1c0,0,0-0.1-0.1-0.1
	c0,0-0.1,0-0.2,0c-0.1,0-0.1,0.1-0.1,0.1c0,0,0,0.1-0.1,0.1v0.1c0,0,0,0.1-0.1,0.1l-0.3,0.2l0,0l0,0l0,0l0,0c0-0.1,0-0.2,0-0.3
	c0-0.1,0.1-0.2,0.1-0.3c0.1-0.1,0.1-0.2,0.2-0.3C99.8,67.7,99.9,67.7,99.9,67.6z M100.1,69.8C100.1,69.8,100.1,69.8,100.1,69.8
	L100.1,69.8L99.8,70l0,0l0,0v-0.4c0,0,0,0,0-0.1v-0.1l0.3-0.2l0,0l0,0V69.8L100.1,69.8z"/>
<path class="st4" d="M95.4,76.5v4.7c0,0.3,0.2,0.5,0.6,0.3l6.2-3.5c0.2-0.1,0.3-0.2,0.4-0.4c0.1-0.2,0.2-0.3,0.2-0.5v-4.7
	c0-0.3-0.2-0.5-0.6-0.3l-6.2,3.6c-0.2,0.1-0.3,0.2-0.4,0.4C95.4,76.1,95.4,76.3,95.4,76.5z"/>
<path class="st21" d="M95.4,76.5v4.7c0,0.3,0.2,0.5,0.6,0.3l6.2-3.5c0.2-0.1,0.3-0.2,0.4-0.4c0.1-0.2,0.2-0.3,0.2-0.5v-4.7
	c0-0.3-0.2-0.5-0.6-0.3l-6.2,3.6c-0.2,0.1-0.3,0.2-0.4,0.4C95.4,76.1,95.4,76.3,95.4,76.5z"/>
<path class="st9" d="M98,78.5v-2.1c0-0.1,0-0.2,0.1-0.3c0.1-0.1,0.2-0.1,0.3-0.1l1.9-0.1c0.2,0,0.3,0.1,0.1,0.3l-2.1,2.4
	C98.1,78.7,98,78.7,98,78.5z"/>
<path class="st4" d="M104.4,71l5-2.9c0.1-0.1,0.3,0,0.3,0.1c0,0.1,0,0.2-0.1,0.2c0,0.1-0.1,0.1-0.2,0.2l-5,2.9
	c-0.1,0.1-0.2,0-0.2-0.1c0-0.1,0-0.2,0.1-0.2C104.3,71.1,104.3,71,104.4,71z"/>
<path class="st4" d="M104.4,72.1l5-2.9c0.1-0.1,0.3,0,0.3,0.1c0,0.1,0,0.2-0.1,0.2c0,0.1-0.1,0.1-0.2,0.2l-5,2.9
	c-0.1,0.1-0.2,0-0.2-0.1c0-0.1,0-0.2,0.1-0.2C104.3,72.2,104.3,72.1,104.4,72.1z"/>
<path class="st4" d="M104.4,73.1l5-2.9c0.1-0.1,0.3,0,0.3,0.1c0,0.1,0,0.2-0.1,0.2c0,0.1-0.1,0.1-0.2,0.2l-5,2.9
	c-0.1,0.1-0.2,0-0.2-0.1c0-0.1,0-0.2,0.1-0.2C104.3,73.2,104.3,73.1,104.4,73.1z"/>
<path class="st2" d="M104.3,74.6l3.4-2c0.1,0,0.2,0,0.2,0.1c0,0.1,0,0.1-0.1,0.2c0,0-0.1,0.1-0.1,0.1l-3.4,2c-0.1,0.1-0.2,0-0.2-0.1
	c0-0.1,0-0.1,0-0.2C104.2,74.7,104.2,74.6,104.3,74.6z"/>
<path class="st2" d="M104.3,75.3l3.4-2c0.1-0.1,0.2,0,0.2,0.1c0,0.1,0,0.1-0.1,0.2c0,0-0.1,0.1-0.1,0.1l-3.4,2
	c-0.1,0.1-0.2,0-0.2-0.1c0-0.1,0-0.1,0-0.2C104.2,75.4,104.2,75.4,104.3,75.3z"/>
<path class="st2" d="M104.3,76l3.4-2c0.1,0,0.2,0,0.2,0.1c0,0.1,0,0.1-0.1,0.2c0,0-0.1,0.1-0.1,0.1l-3.4,2c-0.1,0-0.2,0-0.2-0.1
	c0-0.1,0-0.1,0-0.2C104.2,76.1,104.2,76,104.3,76z"/>
<path class="st4" d="M95.4,84.9v4.7c0,0.3,0.2,0.5,0.6,0.3l6.2-3.6c0.3-0.2,0.5-0.6,0.6-1v-4.7c0-0.3-0.2-0.5-0.6-0.3l-6.2,3.6
	c-0.2,0.1-0.3,0.2-0.4,0.4C95.4,84.5,95.4,84.7,95.4,84.9z"/>
<path class="st21" d="M95.4,84.9v4.7c0,0.3,0.2,0.5,0.6,0.3l6.2-3.6c0.3-0.2,0.5-0.6,0.6-1v-4.7c0-0.3-0.2-0.5-0.6-0.3l-6.2,3.6
	c-0.2,0.1-0.3,0.2-0.4,0.4C95.4,84.5,95.4,84.7,95.4,84.9z"/>
<path class="st9" d="M98,86.9v-2.1c0-0.1,0-0.2,0.1-0.3c0.1-0.1,0.2-0.1,0.3-0.1l1.9-0.1c0.2,0,0.3,0.1,0.1,0.3L98.3,87
	C98.1,87.1,98,87.1,98,86.9z"/>
<path class="st4" d="M104.4,79.4l5-2.9c0.1-0.1,0.3,0,0.3,0.1c0,0.1,0,0.2-0.1,0.2c0,0.1-0.1,0.1-0.2,0.2l-5,2.9
	c-0.1,0.1-0.2,0-0.2-0.1c0-0.1,0-0.2,0.1-0.2C104.3,79.5,104.3,79.4,104.4,79.4z"/>
<path class="st4" d="M104.4,80.4l5-2.9c0.1-0.1,0.3,0,0.3,0.1c0,0.1,0,0.2-0.1,0.2c0,0.1-0.1,0.1-0.2,0.2l-5,2.9
	c-0.1,0.1-0.2,0-0.2-0.1c0-0.1,0-0.2,0.1-0.2C104.3,80.6,104.3,80.5,104.4,80.4z"/>
<path class="st4" d="M104.4,81.5l5-2.9c0.1-0.1,0.3,0,0.3,0.1c0,0.1,0,0.2-0.1,0.2c0,0.1-0.1,0.1-0.2,0.2l-5,2.9
	c-0.1,0.1-0.2,0-0.2-0.1c0-0.1,0-0.2,0.1-0.2C104.3,81.6,104.3,81.5,104.4,81.5z"/>
<path class="st2" d="M104.3,83l3.4-2c0.1-0.1,0.2,0,0.2,0.1c0,0.1,0,0.1-0.1,0.2c0,0.1-0.1,0.1-0.1,0.1l-3.4,2
	c-0.1,0.1-0.2,0-0.2-0.1c0-0.1,0-0.1,0-0.2C104.2,83.1,104.2,83,104.3,83z"/>
<path class="st2" d="M104.3,83.7l3.4-2c0.1,0,0.2,0,0.2,0.1c0,0.1,0,0.1-0.1,0.2c0,0-0.1,0.1-0.1,0.1l-3.4,2c-0.1,0-0.2,0-0.2-0.1
	c0-0.1,0-0.1,0-0.2C104.2,83.8,104.2,83.7,104.3,83.7z"/>
<path class="st2" d="M104.3,84.4l3.4-2c0.1-0.1,0.2,0,0.2,0.1c0,0.1,0,0.1-0.1,0.2c0,0.1-0.1,0.1-0.1,0.1l-3.4,2
	c-0.1,0.1-0.2,0-0.2-0.1c0-0.1,0-0.1,0-0.2C104.2,84.5,104.2,84.5,104.3,84.4z"/>
<path class="st4" d="M95.4,93.3V98c0,0.3,0.2,0.5,0.6,0.3l6.2-3.6c0.3-0.2,0.5-0.6,0.6-0.9v-4.7c0-0.3-0.2-0.5-0.6-0.3l-6.2,3.6
	c-0.2,0.1-0.3,0.2-0.4,0.4C95.4,92.9,95.4,93.1,95.4,93.3z"/>
<path class="st21" d="M95.4,93.3V98c0,0.3,0.2,0.5,0.6,0.3l6.2-3.6c0.3-0.2,0.5-0.6,0.6-0.9v-4.7c0-0.3-0.2-0.5-0.6-0.3l-6.2,3.6
	c-0.2,0.1-0.3,0.2-0.4,0.4C95.4,92.9,95.4,93.1,95.4,93.3z"/>
<path class="st9" d="M98,95.3v-2.1c0-0.1,0-0.2,0.1-0.3c0.1-0.1,0.2-0.1,0.3-0.1l1.9-0.1c0.2,0,0.3,0.1,0.1,0.3l-2.1,2.4
	C98.1,95.5,98,95.4,98,95.3z"/>
<path class="st4" d="M104.4,87.8l5-2.9c0.1-0.1,0.3,0,0.3,0.1c0,0.1,0,0.2-0.1,0.2c0,0.1-0.1,0.1-0.2,0.2l-5,2.9
	c-0.1,0.1-0.2,0-0.2-0.1c0-0.1,0-0.2,0.1-0.2C104.3,87.9,104.3,87.8,104.4,87.8z"/>
<path class="st4" d="M104.4,88.8l5-2.9c0.1-0.1,0.3,0,0.3,0.1c0,0.1,0,0.2-0.1,0.2c0,0.1-0.1,0.1-0.2,0.2l-5,2.9
	c-0.1,0.1-0.2,0-0.2-0.1c0-0.1,0-0.2,0.1-0.2C104.3,88.9,104.3,88.9,104.4,88.8z"/>
<path class="st4" d="M104.4,89.9l5-2.9c0.1-0.1,0.3,0,0.3,0.1c0,0.1,0,0.2-0.1,0.2c0,0.1-0.1,0.1-0.2,0.2l-5,2.9
	c-0.1,0.1-0.2,0-0.2-0.1c0-0.1,0-0.2,0.1-0.2C104.3,90,104.3,89.9,104.4,89.9z"/>
<path class="st2" d="M104.3,91.4l3.4-2c0.1-0.1,0.2,0,0.2,0.1c0,0.1,0,0.1-0.1,0.2c0,0.1-0.1,0.1-0.1,0.1l-3.4,2
	c-0.1,0-0.2,0-0.2-0.1c0-0.1,0-0.1,0-0.2C104.2,91.4,104.2,91.4,104.3,91.4z"/>
<path class="st2" d="M104.3,92.1l3.4-2c0.1,0,0.2,0,0.2,0.1c0,0.1,0,0.1-0.1,0.2c0,0-0.1,0.1-0.1,0.1l-3.4,2c-0.1,0.1-0.2,0-0.2-0.1
	c0-0.1,0-0.1,0-0.2C104.2,92.2,104.2,92.1,104.3,92.1z"/>
<path class="st2" d="M104.3,92.8l3.4-2c0.1-0.1,0.2,0,0.2,0.1c0,0.1,0,0.1-0.1,0.2c0,0.1-0.1,0.1-0.1,0.1l-3.4,2
	c-0.1,0.1-0.2,0-0.2-0.1c0-0.1,0-0.1,0-0.2C104.2,92.9,104.2,92.8,104.3,92.8z"/>
<path class="st4" d="M95.4,101.7v4.7c0,0.3,0.2,0.5,0.6,0.3l6.2-3.6c0.2-0.1,0.3-0.2,0.4-0.4c0.1-0.2,0.2-0.3,0.2-0.5v-4.7
	c0-0.3-0.2-0.5-0.6-0.3l-6.2,3.6c-0.2,0.1-0.3,0.2-0.4,0.4C95.4,101.3,95.4,101.5,95.4,101.7z"/>
<path class="st21" d="M95.4,101.7v4.7c0,0.3,0.2,0.5,0.6,0.3l6.2-3.6c0.2-0.1,0.3-0.2,0.4-0.4c0.1-0.2,0.2-0.3,0.2-0.5v-4.7
	c0-0.3-0.2-0.5-0.6-0.3l-6.2,3.6c-0.2,0.1-0.3,0.2-0.4,0.4C95.4,101.3,95.4,101.5,95.4,101.7z"/>
<path class="st9" d="M98,103.6v-2.1c0-0.1,0-0.2,0.1-0.3c0.1-0.1,0.2-0.1,0.3-0.1l1.9-0.1c0.2,0,0.3,0.1,0.1,0.3l-2.1,2.4
	C98.1,103.9,98,103.8,98,103.6z"/>
<path class="st4" d="M104.4,96.2l5-2.9c0.1-0.1,0.3,0,0.3,0.1c0,0.2-0.1,0.3-0.3,0.4l-5,2.9c-0.1,0.1-0.2,0-0.2-0.1
	c0-0.1,0-0.2,0.1-0.2C104.3,96.2,104.3,96.2,104.4,96.2z"/>
<path class="st4" d="M104.4,97.2l5-2.9c0.1-0.1,0.3,0,0.3,0.1c0,0.1,0,0.2-0.1,0.2c0,0.1-0.1,0.1-0.2,0.2l-5,2.9
	c-0.1,0.1-0.2,0-0.2-0.1c0-0.1,0-0.2,0.1-0.2C104.3,97.3,104.3,97.3,104.4,97.2z"/>
<path class="st4" d="M104.4,98.3l5-2.9c0.1-0.1,0.3,0,0.3,0.1c0,0.1,0,0.2-0.1,0.2c0,0.1-0.1,0.1-0.2,0.2l-5,2.9
	c-0.1,0.1-0.2,0-0.2-0.1c0-0.1,0-0.2,0.1-0.2C104.3,98.4,104.3,98.3,104.4,98.3z"/>
<path class="st2" d="M104.3,99.7l3.4-2c0.1-0.1,0.2,0,0.2,0.1c0,0.1,0,0.1-0.1,0.2c0,0-0.1,0.1-0.1,0.1l-3.4,2
	c-0.1,0.1-0.2,0-0.2-0.1c0-0.1,0-0.1,0-0.2C104.2,99.8,104.2,99.8,104.3,99.7z"/>
<path class="st2" d="M104.3,100.5l3.4-2c0.1,0,0.2,0,0.2,0.1c0,0.1,0,0.1-0.1,0.2c0,0-0.1,0.1-0.1,0.1l-3.4,2
	c-0.1,0.1-0.2,0-0.2-0.1c0-0.1,0-0.1,0-0.2C104.2,100.5,104.2,100.5,104.3,100.5z"/>
<path class="st2" d="M104.3,101.2l3.4-2c0.1-0.1,0.2,0,0.2,0.1c0,0.1,0,0.1-0.1,0.2c0,0-0.1,0.1-0.1,0.1l-3.4,2
	c-0.1,0-0.2,0-0.2-0.1c0-0.1,0-0.1,0-0.2C104.2,101.2,104.2,101.2,104.3,101.2z"/>
<path class="st4" d="M57,124.3l18.6-10.8c0.3-0.2,0.6,0,0.6,0.3c0,0.2-0.1,0.4-0.2,0.5c-0.1,0.2-0.2,0.3-0.4,0.4L57,125.5
	c-0.3,0.2-0.5,0-0.5-0.3c0-0.2,0.1-0.4,0.2-0.5C56.7,124.6,56.8,124.4,57,124.3z"/>
<path class="st2" d="M56.8,126.5l10.4-6c0.2-0.1,0.3,0,0.3,0.2c0,0.1,0,0.2-0.1,0.3c-0.1,0.1-0.1,0.2-0.2,0.2l-10.4,6
	c-0.2,0.1-0.3,0-0.3-0.2c0-0.1,0-0.2,0.1-0.3C56.6,126.6,56.7,126.6,56.8,126.5z"/>
<path class="st4" d="M60.9,126.3l13.3-7.7c0.3-0.2,0.6,0,0.6,0.3c0,0.2-0.1,0.4-0.2,0.5c-0.1,0.2-0.2,0.3-0.4,0.4l-13.3,7.7
	c-0.3,0.2-0.5,0.1-0.5-0.3c0-0.2,0.1-0.4,0.2-0.5C60.6,126.5,60.7,126.4,60.9,126.3z"/>
<path class="st2" d="M60.6,128.4l5.1-3c0.2-0.1,0.3,0,0.3,0.2c0,0.1,0,0.2-0.1,0.3c-0.1,0.1-0.1,0.2-0.2,0.2l-5.2,3
	c-0.2,0.1-0.3,0-0.3-0.1c0-0.1,0-0.2,0.1-0.3C60.5,128.6,60.5,128.5,60.6,128.4z"/>
<path class="st4" d="M57.9,127.6c-0.4,0.3-0.8,0.7-1,1.1c-0.3,0.4-0.4,0.9-0.4,1.4c0,0.9,0.7,1.3,1.5,0.8c0.4-0.3,0.8-0.7,1-1.1
	c0.2-0.4,0.4-0.9,0.4-1.4C59.4,127.5,58.7,127.2,57.9,127.6z"/>
<path class="st19" d="M57.8,129.1c0,0-0.1,0-0.1,0c0,0-0.1-0.1-0.1-0.1c0-0.1,0-0.1,0-0.2c0-0.1,0-0.3,0.1-0.4
	c0.1-0.1,0.2-0.2,0.3-0.3c0,0,0.1,0,0.2-0.1c0.1,0,0.1,0,0.2,0c0.1,0,0.1,0.1,0.1,0.1c0,0.1,0,0.1,0,0.2c0,0.1,0,0.3-0.1,0.4
	c-0.1,0.1-0.2,0.2-0.3,0.3C57.9,129.1,57.8,129.1,57.8,129.1z"/>
<path class="st19" d="M58.5,129.2c-0.1,0-0.2-0.1-0.3-0.1c-0.1,0-0.2,0-0.3,0.1l-0.2,0.1c-0.2,0.1-0.3,0.3-0.5,0.5
	c-0.1,0.2-0.2,0.4-0.2,0.6v0.1c0.1,0.1,0.3,0.1,0.4,0.1c0.1,0,0.3-0.1,0.4-0.1c0.3-0.2,0.6-0.5,0.8-0.8l0,0c0-0.1,0-0.2,0-0.3
	C58.7,129.4,58.6,129.3,58.5,129.2z"/>
<path class="st4" d="M83,114.2l6.2-3.6c0.3-0.2,0.6,0,0.6,0.3v1.1c0,0.2-0.1,0.4-0.2,0.5c-0.1,0.2-0.2,0.3-0.4,0.4l-6.2,3.6
	c-0.3,0.2-0.6,0-0.6-0.3v-1.1c0-0.2,0.1-0.4,0.2-0.5C82.7,114.4,82.8,114.3,83,114.2z"/>
<path class="st22" d="M83,114.2l6.2-3.6c0.3-0.2,0.6,0,0.6,0.3v1.1c0,0.2-0.1,0.4-0.2,0.5c-0.1,0.2-0.2,0.3-0.4,0.4l-6.2,3.6
	c-0.3,0.2-0.6,0-0.6-0.3v-1.1c0-0.2,0.1-0.4,0.2-0.5C82.7,114.4,82.8,114.3,83,114.2z"/>
<path class="st4" d="M91.9,110.1v-0.4c0-0.4-0.3-0.6-0.6-0.4c-0.2,0.1-0.3,0.3-0.4,0.5c-0.1,0.2-0.2,0.4-0.2,0.6v0.3
	c0,0.2-0.1,0.4-0.2,0.6c0,0.1,0,0.1,0,0.2c0,0.1,0.1,0.2,0.2,0.1l1.3-0.8c0,0,0.1-0.1,0.1-0.1c0,0,0-0.1,0-0.2c0,0,0,0,0-0.1l0,0
	c-0.1,0-0.1-0.1-0.2-0.2C92,110.3,91.9,110.2,91.9,110.1z"/>
<path class="st4" d="M91.6,111.2c0,0.1,0,0.2-0.1,0.3c0,0.1-0.1,0.2-0.2,0.2c-0.2,0.1-0.3,0-0.3-0.2L91.6,111.2z"/>
<path class="st4" d="M80.8,111.9c0,0.1,0,0.2-0.1,0.2c0,0,0,0.1,0,0.1c0,0,0,0.1,0,0.2c0,0-0.1,0.1-0.1,0.1l-0.7,0.4v-1
	c0,0,0.2-0.5,0.2-0.5c0-0.1,0-0.2,0-0.3c0,0,0-0.1,0.1-0.1h0.1l0,0c0,0,0,0.1,0,0.2c0,0.1,0,0.2,0,0.3l0.4-0.3l0,0h0.1l0,0l0,0
	c0,0.1,0,0.1-0.1,0.2c0,0,0.1,0,0.1,0.1c0,0,0,0.1,0,0.1c0,0,0,0.1-0.1,0.1C80.6,111.6,80.8,111.8,80.8,111.9z"/>
<path class="st4" d="M79.7,112.8v0.2l0,0l0,0l-0.2,0.1l0,0v-1.1l0.2-0.1l0.1-0.1l0,0L79.7,112.8z"/>
<path class="st4" d="M85.9,108.2L85.9,108.2L85.9,108.2L85.9,108.2L85.9,108.2c0,0,0-0.1,0-0.1c0-0.1-0.1-0.1-0.2-0.1l-0.7,0.4v1
	c0.1,0.1,0.2,0.2,0.2,0.3c0,0.1,0,0.2,0,0.3c0,0,0.1,0,0.2-0.1c0,0,0-0.1,0-0.1c0-0.1,0-0.1,0-0.2c0-0.1,0-0.2,0-0.3l0.4-0.3
	c0,0,0.1,0,0.1-0.1c0,0,0-0.1,0-0.2c0-0.1,0-0.1-0.1-0.1c0,0,0,0,0.1-0.1c0,0,0-0.1,0-0.1c0,0,0-0.1-0.1-0.1c0,0,0,0,0,0
	C85.9,108.4,85.9,108.3,85.9,108.2z"/>
<path class="st4" d="M84.8,108.5v-0.2l0,0l-0.2,0.1l0,0v1.1l0.2-0.1l0.1-0.1c0,0,0,0,0-0.1L84.8,108.5z"/>
<path class="st4" d="M91.5,105.2l-0.8-0.2v0.4c-0.3,0.1-0.6,0.4-0.8,0.6c-0.4,0.7-0.1,1,0,1s-0.2-0.2,0-0.6c0.2-0.3,0.4-0.5,0.7-0.6
	v0.5L91.5,105.2z"/>
<path class="st2" d="M81.9,110.4l1-0.6c0.3-0.2,0.6,0,0.6,0.3c0,0.4-0.2,0.7-0.6,0.9l-1,0.6c-0.3,0.2-0.6,0-0.6-0.3
	c0-0.2,0.1-0.4,0.2-0.5C81.7,110.6,81.8,110.5,81.9,110.4z"/>
<path class="st2" d="M87.1,107.4l1-0.6c0.3-0.2,0.6-0.1,0.6,0.3c0,0.2-0.1,0.4-0.2,0.5c-0.1,0.2-0.2,0.3-0.4,0.4l-1,0.6
	c-0.3,0.2-0.6,0.1-0.6-0.3c0-0.2,0.1-0.4,0.2-0.5C86.8,107.7,87,107.5,87.1,107.4z"/>
<path class="st3" d="M58,95.4l34.7-20c0.3-0.2,0.6,0,0.6,0.3v24.7c0,0.2-0.1,0.4-0.2,0.5c-0.1,0.2-0.2,0.3-0.4,0.4l-34.7,20
	c-0.3,0.2-0.6,0-0.6-0.3V96.4c0-0.2,0.1-0.4,0.2-0.5C57.7,95.7,57.8,95.6,58,95.4z"/>
<path class="st23" d="M62,117.5l25.5-14.7c0.2-0.1,0.3,0,0.3,0.2c0,0.1,0,0.2-0.1,0.3c-0.1,0.1-0.1,0.2-0.2,0.2L62,118.2
	c-0.2,0.1-0.3,0-0.3-0.2c0-0.1,0-0.2,0.1-0.3C61.8,117.7,61.9,117.6,62,117.5z"/>
<path class="st19" d="M62,117.5l23-13.2c0.2-0.1,0.3,0,0.3,0.2c0,0.1,0,0.2-0.1,0.3c0,0.1-0.1,0.2-0.2,0.2l-23,13.2
	c-0.2,0.1-0.3,0-0.3-0.2c0-0.1,0-0.2,0.1-0.3C61.8,117.7,61.9,117.6,62,117.5z"/>
<path class="st19" d="M58.9,119.4v0.6l0,0l0,0l-0.1,0.1l0,0l0,0l0,0v-0.6l0,0l0,0L58.9,119.4C58.9,119.4,58.9,119.3,58.9,119.4z"/>
<path class="st19" d="M59.3,119.1v0.6l0,0l0,0l-0.1,0.1l0,0v-0.6l0,0l0,0L59.3,119.1C59.3,119.1,59.3,119.1,59.3,119.1z"/>
<path class="st19" d="M61,118.2v0.6l0,0l0,0l0,0l0,0V118.2L61,118.2L61,118.2L61,118.2L61,118.2L61,118.2
	C61,118.2,61,118.2,61,118.2z"/>
<path class="st19" d="M60.1,118.7v0.6l0,0l0.6-0.7v-0.1L60.1,118.7L60.1,118.7C60.1,118.6,60.1,118.6,60.1,118.7z"/>
<path class="st9" d="M90.8,101.1L90.8,101.1C90.8,101.1,90.8,101.1,90.8,101.1v-0.3l0,0l0,0l0.3-0.2h0.1l0,0c0,0,0,0,0,0.1l0,0
	l-0.3,0.2v0.1l0,0c0,0,0,0.1,0,0.1S90.8,101.1,90.8,101.1L90.8,101.1z"/>
<path class="st9" d="M92.3,100.2L92.3,100.2L92.3,100.2L92.3,100.2l-0.2,0H92l0,0l0,0l0,0l0,0l0,0l0.3-0.2l0,0l0,0l0,0L92.3,100.2
	L92.3,100.2L92.3,100.2z"/>
<path class="st9" d="M90.8,102.1L90.8,102.1L90.8,102.1L90.8,102.1v-0.2l0,0l0,0l0,0l0,0v0.1l0.2-0.1l0,0l0,0c0,0,0,0,0,0.1l0,0
	L90.8,102.1L90.8,102.1z"/>
<path class="st9" d="M92,101.4L92,101.4L92,101.4L92,101.4L92,101.4l0.3-0.2V101l0,0l0,0h0.1l0,0v0.2l0,0l0,0L92,101.4L92,101.4z"/>
<path class="st19" d="M90,101.9h-0.2v-0.1l0,0l0.2-0.2l0,0l0,0l-0.1-0.2l0,0l-0.2,0.2l0,0h-0.1l0,0l0,0v-0.2h-0.2l0,0l-0.1,0.2l0,0
	c0,0-0.1,0-0.1,0.1l0,0l-0.1-0.1l0,0l-0.2,0.2l0,0v0.2l0,0c0,0-0.1,0.1-0.1,0.1l0,0h-0.2l0,0l0,0l-0.1,0.3h0.2l0,0c0,0,0,0.1,0,0.1
	l0,0l-0.2,0.2l0,0l0,0l0.1,0.2l0,0l0.2-0.2l0,0l0,0h0.1l0,0l0,0v0.2l0,0l0,0h0.2l0,0l0,0l0.1-0.2l0,0l0,0l0,0l0,0l0.1,0.1l0,0
	l0.2-0.2l0,0l0,0l-0.1-0.2l0,0c0,0,0.1-0.1,0.1-0.1l0,0h0.2l0,0l0.1-0.3l0,0l0,0l0,0L90,101.9z M89.2,102.5L89.2,102.5
	c-0.1,0-0.1,0-0.2,0l0-0.1c0,0,0-0.1,0-0.1l0,0c0-0.2,0.1-0.3,0.2-0.5l0.1-0.1l0,0h0.1l0,0c0,0,0.1,0,0.1,0c0,0,0,0,0,0.1
	c0,0.1,0,0.2,0,0.3c0,0.1-0.1,0.2-0.2,0.3C89.3,102.4,89.3,102.5,89.2,102.5L89.2,102.5z"/>
<path class="st24" d="M81.5,84.3c0.7-0.4,1.4-0.1,1.4,0.8c0,0.5-0.2,0.9-0.4,1.3c-0.2,0.4-0.6,0.8-1,1c-0.8,0.4-1.4,0.1-1.4-0.8
	c0-0.5,0.2-0.9,0.4-1.3C80.7,84.9,81.1,84.5,81.5,84.3z"/>
<path class="st3" d="M81.3,85.5L81.3,85.5L81.3,85.5v-0.6l-0.2,0.2l0,0L81,85.1l0,0l0,0l0.3-0.4l0,0l0.2-0.1l0,0l0,0v0.8l0,0l0,0
	L81.3,85.5z"/>
<path class="st24" d="M84.5,83.2l6.6-3.8c0.2-0.1,0.3,0,0.3,0.2c0,0.1,0,0.2-0.1,0.3c-0.1,0.1-0.1,0.2-0.2,0.2l-6.6,3.8
	c-0.2,0.1-0.3,0-0.3-0.2c0-0.1,0-0.2,0.1-0.3C84.4,83.3,84.4,83.3,84.5,83.2z"/>
<path class="st2" d="M84.4,84.5l4.5-2.6c0.1-0.1,0.2,0,0.2,0.1c0,0.1,0,0.2-0.1,0.2c0,0.1-0.1,0.1-0.2,0.2L84.4,85
	c-0.1,0.1-0.2,0-0.2-0.1c0-0.1,0-0.1,0.1-0.2C84.3,84.6,84.3,84.5,84.4,84.5z"/>
<path class="st24" d="M81.5,89c0.7-0.4,1.4-0.1,1.4,0.8c0,0.5-0.2,0.9-0.4,1.3c-0.3,0.4-0.6,0.7-1,1c-0.8,0.4-1.4,0.1-1.4-0.8
	c0-0.5,0.2-0.9,0.4-1.3C80.8,89.6,81.1,89.3,81.5,89z"/>
<path class="st3" d="M81,90.4L81,90.4L81,90.4L81,90.4c0-0.1,0-0.2,0-0.2l0.1-0.2c0.1-0.1,0.1-0.2,0.2-0.2c0,0,0.1-0.1,0.1-0.1
	c0,0,0-0.1,0-0.1c0-0.1,0-0.1-0.1-0.1c0,0-0.1,0-0.1,0.1v0.1c0,0,0,0,0,0.1l-0.1,0.1l0,0l0,0c0-0.1,0-0.1,0-0.2
	c0-0.1,0.1-0.1,0.1-0.2c0-0.1,0.1-0.1,0.2-0.1c0.1,0,0.1-0.1,0.2-0.1c0,0,0.1,0,0.1,0c0,0,0,0.1,0,0.1c0,0.1,0,0.1,0,0.2l-0.2,0.3
	L81.3,90l0.3-0.2l0,0l0,0V90l0,0l0,0L81,90.4z"/>
<path class="st24" d="M84.5,87.9l6.6-3.8c0.2-0.1,0.3,0,0.3,0.2c0,0.1,0,0.2-0.1,0.3c-0.1,0.1-0.1,0.2-0.2,0.2l-6.6,3.8
	c-0.2,0.1-0.3,0-0.3-0.2c0-0.1,0-0.2,0.1-0.3C84.4,88,84.4,88,84.5,87.9z"/>
<path class="st2" d="M84.4,89.2l4.5-2.6c0.1-0.1,0.2,0,0.2,0.1c0,0.1,0,0.2-0.1,0.2c0,0.1-0.1,0.1-0.2,0.2l-4.5,2.6
	c-0.1,0.1-0.2,0-0.2-0.1c0-0.1,0-0.1,0.1-0.2C84.3,89.3,84.4,89.2,84.4,89.2z"/>
<path class="st24" d="M81.5,93.7c0.7-0.4,1.4-0.1,1.4,0.8c0,1-0.6,1.8-1.4,2.4c-0.8,0.4-1.4,0.1-1.4-0.8c0-0.5,0.2-0.9,0.4-1.3
	C80.8,94.3,81.1,94,81.5,93.7z"/>
<path class="st3" d="M81.3,94.9c-0.1,0-0.1,0.1-0.2,0.1c0,0-0.1,0-0.1,0c0,0,0-0.1,0-0.1l0,0l0,0l0.1-0.1l0,0c0,0,0.1,0,0.1,0
	c0,0,0.1-0.1,0.1-0.1c0,0,0-0.1,0-0.1c0-0.1,0-0.1-0.1,0l-0.1,0.1l0,0l0,0v-0.2c0,0,0,0,0-0.1l0.2-0.3L81,94.3l0,0l0,0v-0.1l0,0l0,0
	l0.5-0.3l0,0l0,0V94l0,0l-0.2,0.3l0,0c0.1,0,0.1,0,0.2,0c0,0,0.1,0.1,0.1,0.2c0,0.1,0,0.1,0,0.2c0,0.1-0.1,0.1-0.1,0.2
	C81.4,94.8,81.4,94.9,81.3,94.9z"/>
<path class="st24" d="M84.5,92.6l6.6-3.8c0.2-0.1,0.3,0,0.3,0.2c0,0.1,0,0.2-0.1,0.3c-0.1,0.1-0.1,0.2-0.2,0.2l-6.6,3.8
	c-0.2,0.1-0.3,0-0.3-0.2c0-0.1,0-0.2,0.1-0.3C84.4,92.8,84.4,92.7,84.5,92.6z"/>
<path class="st2" d="M84.4,93.9l4.5-2.6c0.1-0.1,0.2,0,0.2,0.1c0,0.1,0,0.1-0.1,0.2c0,0.1-0.1,0.1-0.2,0.2l-4.5,2.6
	c-0.1,0.1-0.2,0-0.2-0.1c0-0.1,0-0.2,0.1-0.2C84.3,94,84.4,93.9,84.4,93.9z"/>
<path class="st14" d="M75.6,100c-1.6,0.2-5.9,0.3-5.9,0.3c-2.9-1.3-4.9-3.9-5.4-7.1l-0.1-1.3c-0.1-2.6,1.5-4.9,4-5.6
	c1.4-0.5,3-0.3,4.3,0.6c0.6,0.4,1.2,0.9,1.5,1.6c0.4,0.6,0.6,1.4,0.7,2.1c0,0.6,0.3,1.2,0.8,1.7c0.3,0.2,0.6,0.4,1,0.5
	c0.5,0.2,0.9,0.5,1.3,0.9c0.2,0.2,0.3,0.4,0.4,0.7c0.1,0.2,0.1,0.5,0.1,0.8c0,0.3-0.2,0.7-0.4,0.9c0,0-0.1,0.1-0.1,0.2
	c0,0,0,0.1,0,0.1c0.5,0.6,0.7,1.5,0.5,2.2c-0.2,0.5-0.6,0.8-1,1.1c-0.5,0.2-0.9,0.4-1.4,0.4L75.6,100z"/>
<path class="st25" d="M89.5,95.5c-0.1-0.1-0.2-0.2-0.3-0.3C89,95,88.8,94.9,88.5,95c-0.1,0.1-0.3,0.2-0.3,0.3
	c-0.2,0.2-0.3,0.4-0.5,0.7c-0.2,0.4-0.4,0.7-0.7,1c-0.1,0.1-0.3,0.3-0.4,0.3h-0.1c0,0,0-0.1,0-0.1c0-0.2,0-0.3,0-0.5
	c0-0.2,0-0.3,0-0.5c0-0.1-0.1-0.1-0.1-0.2c-0.1-0.1-0.1-0.1-0.2-0.1c0,0-0.1,0-0.1,0.1c0,0,0,0.1,0,0.1c-0.3,0.6-0.5,1.3-0.7,1.9
	c0,0.3-0.1,0.6-0.2,0.9c-0.2,0.6-0.9,1-1.4,1.3c-1.1,0.7-2.3,1.4-3.5,2c-0.6-0.5-4.3-3.7-5.3-4.6c-0.9-0.7-2.1-1-3.2-0.7
	c-0.2,0-0.5,1.4,1.2,3.5c0,0,5.4,4.6,6.4,5.2c0.3,0.2,0.6,0.4,1,0.4h0.1c0.1,0,0.1,0,0.2,0c0.6-0.3,1.1-0.6,1.6-1
	c1.5-1.3,3-2.6,4.4-4c0.4-0.4,0.9-0.7,1.3-1.1c0.6-0.4,1.1-1,1.4-1.6c0.3-0.4,0.5-0.9,0.5-1.4C89.9,96.4,89.8,95.9,89.5,95.5z"/>
<path class="st24" d="M66,107.9c-0.9,1.9-1.5,4-1.7,6.1c-0.1,1.6,0,3.9,0,3.9l11.2-6.5c-0.3-1.6-0.6-3.1-1.1-4.7L66,107.9z"/>
<path class="st9" d="M74.5,103.2l-0.1,2.9c0.1,0.6,0.4,1.5,0.6,2.4c-0.2,0.5-1.4,1.9-4,2.8c-2.8,0.9-5.9,0-6.3-0.7l1.1-2.8
	c0,0-1-3.7-1-3.7c0.6-1,1-2.1,1.1-3.3c0.2-1,0-1.9-0.6-2.8c0.1,0,1.7-0.5,1.7-0.5l3.2-0.6l1.5-0.1c1.3,0.6,2.3,1.7,2.9,2.9
	c0.3,0.5,0.4,1.1,0.4,1.8C75.1,102.1,74.8,102.7,74.5,103.2z"/>
<path class="st25" d="M72.6,88.4c0.3,0.3,1,1.2,1,4.1c-0.1,2.5-0.9,3.1-1.3,3.3c-0.7,0.1-1.3,0.1-2-0.1V97c0.6,0.4,1,0.9,1.4,1.4
	c0.2,0.5-1.1,1.3-3.2,0.4c-0.6-0.3-1.1-0.7-1.5-1.3V94c0,0-0.4,0.4-1.2-0.2c-0.6-0.5-0.8-1.4-0.3-2c0.1-0.1,0.3-0.2,0.4-0.3
	c0.2,0,0.3,0,0.5,0c0.2,0,0.3,0.1,0.5,0.2c0.1,0.1,0.2,0.2,0.3,0.4c1.1,0,2.1-0.3,3-0.8C71.8,90.4,72.5,89.4,72.6,88.4z"/>
<path class="st14" d="M70.7,92.1c0,0.1,0,0.1,0,0.2c0,0-0.1,0.1-0.1,0.1c-0.1,0-0.1,0-0.2,0c-0.1,0-0.1,0-0.2-0.1
	c0,0-0.1-0.1-0.1-0.2c0-0.1,0-0.1,0-0.2c0-0.1,0.1-0.1,0.1-0.2c0.1,0,0.1-0.1,0.2-0.1h0.1l0.1,0.1c0,0,0.1,0.1,0.1,0.1
	C70.8,92,70.7,92,70.7,92.1z"/>
<path class="st26" d="M70.5,94l1.2,0.2c0,0.1,0,0.2-0.1,0.2c0,0.1-0.1,0.1-0.2,0.2c-0.1,0.1-0.1,0.1-0.2,0.1c-0.1,0-0.2,0-0.2,0
	c-0.2,0-0.3-0.1-0.4-0.3C70.5,94.3,70.5,94.2,70.5,94z"/>
<path class="st27" d="M71,94.7c0.1,0,0.2,0,0.2,0c0-0.1-0.1-0.3-0.2-0.3c-0.1-0.1-0.2-0.1-0.4-0.2c-0.1,0-0.1,0-0.2,0
	c0,0.1,0.1,0.2,0.2,0.3C70.8,94.6,70.9,94.7,71,94.7z"/>
<path class="st14" d="M73.3,91.1l-0.7-0.3c0-0.1,0-0.1,0.1-0.1c0,0,0.1-0.1,0.1-0.1c0,0,0.1,0,0.1,0H73c0.1,0,0.2,0.1,0.2,0.2
	C73.3,90.9,73.3,91,73.3,91.1z"/>
<path class="st14" d="M73.1,91.9c0,0.1,0,0.1,0,0.2c0,0.1-0.1,0.1-0.1,0.1c-0.1,0-0.1,0-0.2,0c-0.1,0-0.1,0-0.2-0.1
	c0,0-0.1-0.1-0.1-0.2c0-0.1,0-0.1,0-0.2c0-0.1,0.1-0.1,0.1-0.1c0,0,0.1-0.1,0.2-0.1c0.1,0,0.2,0,0.2,0.1
	C73.1,91.7,73.1,91.8,73.1,91.9z"/>
<path class="st27" d="M71.6,91.7l0.2,1.8l1-0.5L71.6,91.7z"/>
<path class="st27" d="M70.3,95.8c-0.8-0.1-2.5-0.6-2.7-1.3c0.1,0.3,0.3,0.6,0.6,0.8c0.7,0.4,1.4,0.7,2.2,0.9V95.8z"/>
<path class="st14" d="M67.1,93c0.2,0,0.4-0.1,0.5-0.3c0.1-0.2,0.2-0.4,0.2-0.6c0-0.4-0.4-0.7-0.8-0.7c0,0,0,0,0,0L67.1,93z"/>
<path class="st25" d="M59,109.4c0.3,2.1,1.1,4,3.4,7.9c0.3,0.5,0.6,0.9,1,1.3c0.4,0.4,0.9,0.8,1.4,1c0.3,0.1,0.7,0.2,1,0.1
	c0.5-0.1,1-0.4,1.2-0.9c0.1-0.4-0.7-0.8-0.9-1.1s-0.7-0.6-0.9-0.9s-0.3-0.4-0.1-0.4s0.2,0,0.4,0.1c0.1,0,0.2,0,0.3,0
	c0.1,0,0.2,0,0.3,0c0.1,0,0.2-0.1,0.3-0.2c0,0,0-0.1,0-0.1c0,0,0-0.1,0-0.1c0-0.1-0.1-0.1-0.2-0.1c-0.2-0.1-0.4-0.2-0.6-0.3
	c-0.2-0.1-0.4-0.2-0.6-0.4c-0.3-0.2-0.6-0.5-0.9-0.8c-0.4-0.8-0.8-1.7-1-2.5c-0.2-0.6-0.5-1.8-0.6-2.9c0.1-0.2,0.8-1.5,1.3-2.3
	c0.7-1.1,1.3-2.1,1.9-3.1c1.3-1.6,1.2-4.6,0-5.6c-1.5,0.3-2.7,1.3-3.3,2.7c-1.1,2.1-2.1,4.3-3,6.5C59,108,58.9,108.7,59,109.4z"/>
<path class="st25" d="M100.9,132.4l5.7-1.1c0,0,0.1,0,0.1,0c0,0,0.1,0,0.1,0.1c0,0,0,0.1,0,0.1c0,0,0,0.1,0,0.1l-3.9,4.4
	L100.9,132.4z"/>
<path class="st14" d="M106.8,131.6c0,0,0-0.1,0-0.1c0,0,0-0.1,0-0.1c0,0,0-0.1-0.1-0.1c0,0-0.1,0-0.1,0l-1.1,0.2
	c0.2,0.1,0.3,0.2,0.4,0.4c0.1,0.2,0.1,0.3,0.1,0.5v0.1L106.8,131.6z"/>
<path class="st4" d="M81.4,148.4l0.5-0.3l0.6-0.3l20.5-11.8c0.2-0.6,0.1-1.3-0.2-1.9c-0.3-0.8-1-1.4-1.8-1.7l-20.5,11.8l-1.1,0.6
	C80.1,144.4,82.1,148,81.4,148.4z"/>
<path class="st28" d="M106.8,131.4l-0.2-0.1l-4.2,2.3L80.8,146c0-0.1-0.1-0.1-0.1,0c0.6,0.9,1.1,2.1,0.7,2.4l0.5-0.3l0.6-0.3
	l20.5-11.8l3.9-4.4c0,0,0-0.1,0-0.1C106.8,131.5,106.8,131.4,106.8,131.4z"/>
<path class="st8" d="M173.4,79.7l-5.2,3c0-0.2,0.1-0.5,0.1-0.7v-1.5c0-2.7-1.9-3.8-4.2-2.4c-1,0.6-1.9,1.4-2.5,2.4
	c-0.4-3.4-3-4.6-6.2-2.8c-3.7,2.4-6,6.4-6.3,10.8v2.3c0,0.9,0.2,1.8,0.5,2.6l-4.3,2.5c-1.4,0.9-2.2,2.4-2.3,4c0,1.5,1,2.1,2.3,1.3
	l28-16.2c0.7-0.4,1.3-1,1.7-1.8c0.4-0.7,0.6-1.5,0.7-2.3C175.7,79.6,174.6,79,173.4,79.7z"/>
<path class="st8" d="M198.3,90.9l-3.9,2.3c0-0.2,0-0.3,0-0.5v-1.1c0-2-1.4-2.8-3.1-1.8c-0.8,0.5-1.4,1.1-1.9,1.8
	c-0.3-2.5-2.3-3.5-4.7-2.1c-2.8,1.8-4.5,4.9-4.7,8.2v1.7c0,0.7,0.1,1.4,0.4,2l-3.3,1.9c-0.5,0.3-0.9,0.8-1.2,1.3
	c-0.3,0.5-0.5,1.1-0.5,1.7c0,1.1,0.8,1.6,1.7,1L198.3,95c0.5-0.3,0.9-0.8,1.2-1.3c0.3-0.5,0.5-1.1,0.5-1.7
	C200,90.8,199.2,90.4,198.3,90.9z"/>
<path class="st8" d="M35.4,111.4l-5.2,3c0-0.2,0-0.5,0-0.7v-1.5c0-2.7-1.9-3.8-4.2-2.4c-1,0.6-1.8,1.4-2.5,2.4
	c-0.4-3.3-3-4.6-6.2-2.8c-3.7,2.4-6,6.4-6.3,10.8v2.3c0,0.9,0.2,1.8,0.5,2.6l-4.3,2.5c-0.7,0.4-1.2,1-1.6,1.7
	c-0.4,0.7-0.6,1.5-0.7,2.3c0,1.5,1,2.1,2.3,1.3l28-16.2c0.7-0.4,1.3-1,1.7-1.7c0.4-0.7,0.6-1.5,0.7-2.3
	C37.7,111.3,36.7,110.7,35.4,111.4z"/>
<path class="st8" d="M60.3,122.6l-3.9,2.3c0-0.2,0-0.3,0-0.5v-1.1c0-2-1.4-2.8-3.2-1.8c-0.7,0.5-1.4,1.1-1.9,1.8
	c-0.3-2.5-2.3-3.5-4.7-2.1c-2.8,1.8-4.5,4.9-4.6,8.2v1.7c0,0.7,0.1,1.4,0.4,2l-3.3,1.9c-0.5,0.3-0.9,0.8-1.2,1.3
	c-0.3,0.5-0.5,1.1-0.5,1.7c0,1.1,0.8,1.6,1.8,1l21.2-12.2c0.5-0.3,0.9-0.8,1.2-1.3c0.3-0.5,0.5-1.1,0.5-1.7
	C62,122.5,61.2,122.1,60.3,122.6z"/>
</svg>
