<?xml version="1.0" encoding="utf-8"?>
<!-- Generator: Adobe Illustrator 23.0.0, SVG Export Plug-In . SVG Version: 6.00 Build 0)  -->
<svg version="1.1" id="Layer_1" xmlns="http://www.w3.org/2000/svg" xmlns:xlink="http://www.w3.org/1999/xlink" x="0px" y="0px"
	 viewBox="0 0 200 200" style="enable-background:new 0 0 200 200;" xml:space="preserve">
<style type="text/css">
	.st0{fill:#FFA800;fill-opacity:0.2;}
	.st1{fill:#FFA800;}
</style>
<g>
	<g>
		<path shape-rendering="crispEdges" class="st0" d="M41,12.6h117.4c19.5,0,35.2,15.8,35.2,35.2v108c0,19.5-15.8,35.2-35.2,35.2H41
			c-19.5,0-35.2-15.8-35.2-35.2v-108C5.8,28.4,21.6,12.6,41,12.6z"/>
	</g>
	<path class="st1" d="M120.9,114.4h-3.7l-1.3-1.3c4.8-5.5,7.4-12.6,7.4-19.9c0-6-1.8-11.9-5.1-17c-3.4-5-8.1-8.9-13.7-11.2
		c-5.6-2.3-11.7-2.9-17.6-1.7s-11.4,4.1-15.6,8.4s-7.2,9.7-8.4,15.6c-1.2,5.9-0.6,12.1,1.7,17.6c2.3,5.6,6.2,10.3,11.2,13.7
		c5,3.4,10.9,5.1,17,5.1c7.6,0,14.5-2.8,19.9-7.4l1.3,1.3v3.7l23.5,23.4l7-7L120.9,114.4z M92.7,114.4c-11.7,0-21.1-9.4-21.1-21.1
		S81,72.2,92.7,72.2s21.1,9.4,21.1,21.1C113.8,105,104.4,114.4,92.7,114.4z"/>
</g>
</svg>
