<?xml version="1.0" encoding="utf-8"?>
<!-- Generator: Adobe Illustrator 23.0.0, SVG Export Plug-In . SVG Version: 6.00 Build 0)  -->
<svg version="1.1" id="Layer_1" xmlns="http://www.w3.org/2000/svg" xmlns:xlink="http://www.w3.org/1999/xlink" x="0px" y="0px"
	 viewBox="0 0 200 200" style="enable-background:new 0 0 200 200;" xml:space="preserve">
<style type="text/css">
	.st0{clip-path:url(#SVGID_2_);fill:url(#SVGID_3_);}
	.st1{clip-path:url(#SVGID_2_);}
	.st2{fill:#7F30FF;}
	.st3{fill:url(#SVGID_4_);}
	.st4{fill:url(#SVGID_5_);}
	.st5{fill:url(#SVGID_6_);}
	.st6{clip-path:url(#SVGID_2_);fill:none;}
	.st7{clip-path:url(#SVGID_2_);fill:url(#SVGID_7_);}
	.st8{clip-path:url(#SVGID_2_);fill:#FFFFFF;}
	.st9{fill:url(#SVGID_8_);}
	.st10{clip-path:url(#SVGID_2_);fill:#212525;}
	.st11{clip-path:url(#SVGID_2_);fill:#6233A9;}
	.st12{clip-path:url(#SVGID_2_);fill:#FFFFFF;fill-opacity:0.8;}
	.st13{clip-path:url(#SVGID_2_);fill:#212525;fill-opacity:0.7;}
	.st14{fill:#212525;}
	.st15{fill:#FFFFFF;}
	.st16{clip-path:url(#SVGID_2_);fill:#263238;}
	.st17{clip-path:url(#SVGID_2_);fill-opacity:0.6;}
	.st18{clip-path:url(#SVGID_2_);fill:#2B2B2B;}
	.st19{clip-path:url(#SVGID_2_);fill:#FF0000;fill-opacity:0.76;}
	.st20{clip-path:url(#SVGID_2_);fill:#0038FF;}
	.st21{clip-path:url(#SVGID_2_);fill:#50CB93;}
	.st22{clip-path:url(#SVGID_2_);fill:none;stroke:#FFFFFF;stroke-width:2;stroke-linecap:square;stroke-miterlimit:10;}
	.st23{clip-path:url(#SVGID_2_);fill:none;stroke:#FFFFFF;stroke-width:2;stroke-miterlimit:10;}
	.st24{clip-path:url(#SVGID_2_);fill:none;stroke:#FFFFFF;stroke-width:2;stroke-linecap:round;stroke-linejoin:round;}
	.st25{clip-path:url(#SVGID_2_);fill:#FFA800;}
	.st26{clip-path:url(#SVGID_2_);fill:#7F30FF;}
	.st27{clip-path:url(#SVGID_10_);}
	.st28{fill:#FFA800;fill-opacity:0.2;}
	.st29{fill:#FFA800;}
	.st30{clip-path:url(#SVGID_2_);fill:#212525;fill-opacity:0.8;}
	.st31{clip-path:url(#SVGID_2_);fill:#212525;fill-opacity:0.6;}
	.st32{fill:#FF0000;fill-opacity:0.76;}
	.st33{fill:#FF0000;fill-opacity:0.2;}
	.st34{fill:#0038FF;}
	.st35{fill:#6587FF;fill-opacity:0.2;}
	.st36{fill:#7F30FF;fill-opacity:0.2;}
	.st37{fill:#6233A9;}
	.st38{clip-path:url(#SVGID_2_);fill:#C4C4C4;}
	.st39{clip-path:url(#SVGID_2_);fill:#263238;fill-opacity:0.7;}
	.st40{clip-path:url(#SVGID_2_);fill:#FFCB45;}
	.st41{clip-path:url(#SVGID_2_);fill:#7F30FF;fill-opacity:0.2;}
	.st42{clip-path:url(#SVGID_2_);fill:url(#SVGID_11_);}
	.st43{fill:url(#SVGID_12_);}
	.st44{opacity:0.5;clip-path:url(#SVGID_2_);enable-background:new    ;}
	.st45{clip-path:url(#SVGID_2_);fill:#EBEBEB;}
	.st46{clip-path:url(#SVGID_2_);fill:#F28F8F;}
	.st47{opacity:0.1;clip-path:url(#SVGID_2_);enable-background:new    ;}
	.st48{fill:#F5F5F5;}
	.st49{fill:#EBEBEB;fill-opacity:0.8;}
	.st50{fill:#E0E0E0;}
	.st51{fill:#597481;}
	.st52{opacity:0.45;fill:#FFFFFF;enable-background:new    ;}
	.st53{opacity:5.000000e-02;}
	.st54{opacity:5.000000e-02;enable-background:new    ;}
	.st55{fill:#EBEBEB;}
	.st56{fill:#FAFAFA;}
	.st57{opacity:0.3;enable-background:new    ;}
	.st58{opacity:0.6;}
	.st59{opacity:0.6;enable-background:new    ;}
	.st60{opacity:0.5;enable-background:new    ;}
	.st61{fill:#263238;}
	.st62{opacity:0.7;enable-background:new    ;}
	.st63{fill:#F0F0F0;}
	.st64{opacity:0.4;fill:#FFFFFF;enable-background:new    ;}
	.st65{opacity:0.1;enable-background:new    ;}
	.st66{fill:#E6E6E6;}
	.st67{opacity:0.5;fill:#FFFFFF;enable-background:new    ;}
	.st68{opacity:0.7;fill:#FFFFFF;enable-background:new    ;}
	.st69{opacity:0.3;fill:#FFFFFF;enable-background:new    ;}
	.st70{fill:#0094FF;}
	.st71{fill:#FFA8A7;}
	.st72{fill:#B16668;}
	.st73{fill:#F28F8F;}
	.st74{opacity:0.15;enable-background:new    ;}
	.st75{fill:#C4C4C4;}
	.st76{fill:none;}
	.st77{opacity:0.49;clip-path:url(#SVGID_2_);}
	.st78{opacity:0.6;clip-path:url(#SVGID_2_);fill-opacity:0.5;enable-background:new    ;}
	.st79{clip-path:url(#SVGID_14_);}
	.st80{fill:#50CB93;}
	.st81{fill:none;stroke:#FFFFFF;stroke-width:4.895;stroke-linecap:square;stroke-miterlimit:10;}
	.st82{fill:none;stroke:#FFFFFF;stroke-width:4.895;stroke-miterlimit:10;}
	.st83{fill:#2B2B2B;}
	.st84{fill:none;stroke:#FFFFFF;stroke-width:4.9111;stroke-linecap:round;stroke-linejoin:round;}
	.st85{clip-path:url(#SVGID_16_);}
</style>
<g>
	<g>
		<path class="st32" d="M71.5,67.7c-0.4-0.4-0.8-0.7-1.3-0.9c-0.5-0.2-1-0.3-1.5-0.3c-0.5,0-1.1,0.1-1.6,0.3
			c-0.5,0.2-0.9,0.5-1.3,0.9c-4.3,4.3-7.7,9.3-10,14.9c-2.3,5.6-3.5,11.6-3.5,17.6c0,6.3,1.3,12.5,3.8,18.3
			c2.5,5.8,6.2,11,10.7,15.3c0.8,0.7,1.8,1.1,2.8,1.1c1.1,0,2-0.5,2.8-1.2c1.8-1.8,1.5-4.6-0.2-6.2c-3.7-3.5-6.6-7.7-8.6-12.4
			c-2-4.7-3-9.7-3-14.8c0-10.3,4.1-19.6,10.8-26.4C73,72.1,73.2,69.4,71.5,67.7z"/>
		<path class="st32" d="M81.3,77.5c-0.7-0.8-1.7-1.2-2.8-1.2c-1.1,0-2.1,0.4-2.8,1.1c-3,3-5.4,6.5-7,10.4c-1.6,3.9-2.5,8.1-2.5,12.3
			c0,9.4,4.1,17.9,10.5,23.8c0.8,0.7,1.8,1,2.8,1c1,0,2-0.5,2.7-1.2c1.8-1.8,1.5-4.7-0.2-6.3c-2.4-2.2-4.2-4.9-5.5-7.8
			c-1.3-3-1.9-6.2-1.9-9.4c0-6.4,2.5-12.2,6.7-16.5C82.8,82,83.1,79.3,81.3,77.5z"/>
		<path class="st32" d="M112.3,77.5c0.7-0.8,1.7-1.2,2.8-1.2c1.1,0,2.1,0.4,2.8,1.1c3,3,5.4,6.5,7,10.4c1.6,3.9,2.5,8.1,2.5,12.3
			c0,9.4-4.1,17.9-10.5,23.8c-0.8,0.7-1.8,1-2.8,1c-1,0-2-0.5-2.7-1.2c-1.8-1.8-1.5-4.7,0.2-6.3c2.4-2.2,4.2-4.9,5.5-7.8
			c1.3-3,1.9-6.2,1.9-9.4c0-6.4-2.5-12.2-6.7-16.5C110.8,82,110.6,79.3,112.3,77.5z"/>
		<path class="st32" d="M122.2,67.7c0.4-0.4,0.8-0.7,1.3-0.9c0.5-0.2,1-0.3,1.5-0.3c0.5,0,1.1,0.1,1.6,0.3c0.5,0.2,0.9,0.5,1.3,0.9
			c4.3,4.3,7.7,9.3,10,14.9c2.3,5.6,3.5,11.6,3.5,17.6c0,6.3-1.3,12.5-3.8,18.3c-2.5,5.8-6.2,11-10.7,15.3c-0.8,0.7-1.8,1.1-2.8,1.1
			c-1.1,0-2-0.5-2.8-1.2c-1.8-1.8-1.5-4.6,0.2-6.2c3.7-3.5,6.6-7.7,8.6-12.4c2-4.7,3-9.7,3-14.8c0-10.3-4.1-19.6-10.8-26.4
			C120.6,72.1,120.4,69.4,122.2,67.7z"/>
		<path class="st32" d="M96.8,91.8c-2.2,0-4.3,0.9-5.9,2.4c-1.6,1.6-2.4,3.7-2.4,5.9s0.9,4.3,2.4,5.9c1.6,1.6,3.7,2.4,5.9,2.4
			s4.3-0.9,5.9-2.4s2.4-3.7,2.4-5.9s-0.9-4.3-2.4-5.9S99,91.8,96.8,91.8z"/>
	</g>
	<g>
		<path shape-rendering="crispEdges" class="st33" d="M41.3,7.4h117.4c19.5,0,35.2,15.8,35.2,35.2v108c0,19.5-15.8,35.2-35.2,35.2
			H41.3c-19.5,0-35.2-15.8-35.2-35.2v-108C6.1,23.2,21.8,7.4,41.3,7.4z"/>
	</g>
</g>
</svg>
