<?xml version="1.0" encoding="utf-8"?>
<!-- Generator: Adobe Illustrator 23.0.0, SVG Export Plug-In . SVG Version: 6.00 Build 0)  -->
<svg version="1.1" id="Layer_1" xmlns="http://www.w3.org/2000/svg" xmlns:xlink="http://www.w3.org/1999/xlink" x="0px" y="0px"
	 viewBox="0 0 200 200" style="enable-background:new 0 0 200 200;" xml:space="preserve">
<style type="text/css">
	.st0{clip-path:url(#SVGID_2_);fill:url(#SVGID_3_);}
	.st1{clip-path:url(#SVGID_2_);}
	.st2{fill:#7F30FF;}
	.st3{fill:url(#SVGID_4_);}
	.st4{fill:url(#SVGID_5_);}
	.st5{fill:url(#SVGID_6_);}
	.st6{clip-path:url(#SVGID_2_);fill:none;}
	.st7{clip-path:url(#SVGID_2_);fill:url(#SVGID_7_);}
	.st8{clip-path:url(#SVGID_2_);fill:#FFFFFF;}
	.st9{fill:url(#SVGID_8_);}
	.st10{clip-path:url(#SVGID_2_);fill:#212525;}
	.st11{clip-path:url(#SVGID_2_);fill:#6233A9;}
	.st12{clip-path:url(#SVGID_2_);fill:#FFFFFF;fill-opacity:0.8;}
	.st13{clip-path:url(#SVGID_2_);fill:#212525;fill-opacity:0.7;}
	.st14{fill:#212525;}
	.st15{fill:#FFFFFF;}
	.st16{clip-path:url(#SVGID_2_);fill:#263238;}
	.st17{clip-path:url(#SVGID_2_);fill-opacity:0.6;}
	.st18{clip-path:url(#SVGID_2_);fill:#2B2B2B;}
	.st19{clip-path:url(#SVGID_2_);fill:#FF0000;fill-opacity:0.76;}
	.st20{clip-path:url(#SVGID_2_);fill:#0038FF;}
	.st21{clip-path:url(#SVGID_2_);fill:#50CB93;}
	.st22{clip-path:url(#SVGID_2_);fill:none;stroke:#FFFFFF;stroke-width:2;stroke-linecap:square;stroke-miterlimit:10;}
	.st23{clip-path:url(#SVGID_2_);fill:none;stroke:#FFFFFF;stroke-width:2;stroke-miterlimit:10;}
	.st24{clip-path:url(#SVGID_2_);fill:none;stroke:#FFFFFF;stroke-width:2;stroke-linecap:round;stroke-linejoin:round;}
	.st25{clip-path:url(#SVGID_2_);fill:#FFA800;}
	.st26{clip-path:url(#SVGID_2_);fill:#7F30FF;}
	.st27{clip-path:url(#SVGID_10_);}
	.st28{fill:#FFA800;fill-opacity:0.2;}
	.st29{fill:#FFA800;}
	.st30{clip-path:url(#SVGID_2_);fill:#212525;fill-opacity:0.8;}
	.st31{clip-path:url(#SVGID_2_);fill:#212525;fill-opacity:0.6;}
	.st32{fill:#FF0000;fill-opacity:0.76;}
	.st33{fill:#FF0000;fill-opacity:0.2;}
	.st34{fill:#0038FF;}
	.st35{fill:#6587FF;fill-opacity:0.2;}
	.st36{fill:#7F30FF;fill-opacity:0.2;}
	.st37{fill:#6233A9;}
	.st38{clip-path:url(#SVGID_2_);fill:#C4C4C4;}
	.st39{clip-path:url(#SVGID_2_);fill:#263238;fill-opacity:0.7;}
	.st40{clip-path:url(#SVGID_2_);fill:#FFCB45;}
	.st41{clip-path:url(#SVGID_2_);fill:#7F30FF;fill-opacity:0.2;}
	.st42{clip-path:url(#SVGID_2_);fill:url(#SVGID_11_);}
	.st43{fill:url(#SVGID_12_);}
	.st44{opacity:0.5;clip-path:url(#SVGID_2_);enable-background:new    ;}
	.st45{clip-path:url(#SVGID_2_);fill:#EBEBEB;}
	.st46{clip-path:url(#SVGID_2_);fill:#F28F8F;}
	.st47{opacity:0.1;clip-path:url(#SVGID_2_);enable-background:new    ;}
	.st48{fill:#F5F5F5;}
	.st49{fill:#EBEBEB;fill-opacity:0.8;}
	.st50{fill:#E0E0E0;}
	.st51{fill:#597481;}
	.st52{opacity:0.45;fill:#FFFFFF;enable-background:new    ;}
	.st53{opacity:5.000000e-02;}
	.st54{opacity:5.000000e-02;enable-background:new    ;}
	.st55{fill:#EBEBEB;}
	.st56{fill:#FAFAFA;}
	.st57{opacity:0.3;enable-background:new    ;}
	.st58{opacity:0.6;}
	.st59{opacity:0.6;enable-background:new    ;}
	.st60{opacity:0.5;enable-background:new    ;}
	.st61{fill:#263238;}
	.st62{opacity:0.7;enable-background:new    ;}
	.st63{fill:#F0F0F0;}
	.st64{opacity:0.4;fill:#FFFFFF;enable-background:new    ;}
	.st65{opacity:0.1;enable-background:new    ;}
	.st66{fill:#E6E6E6;}
	.st67{opacity:0.5;fill:#FFFFFF;enable-background:new    ;}
	.st68{opacity:0.7;fill:#FFFFFF;enable-background:new    ;}
	.st69{opacity:0.3;fill:#FFFFFF;enable-background:new    ;}
	.st70{fill:#0094FF;}
	.st71{fill:#FFA8A7;}
	.st72{fill:#B16668;}
	.st73{fill:#F28F8F;}
	.st74{opacity:0.15;enable-background:new    ;}
	.st75{fill:#C4C4C4;}
	.st76{fill:none;}
	.st77{opacity:0.49;clip-path:url(#SVGID_2_);}
	.st78{opacity:0.6;clip-path:url(#SVGID_2_);fill-opacity:0.5;enable-background:new    ;}
	.st79{clip-path:url(#SVGID_14_);}
	.st80{fill:#50CB93;}
	.st81{fill:none;stroke:#FFFFFF;stroke-width:4.895;stroke-linecap:square;stroke-miterlimit:10;}
	.st82{fill:none;stroke:#FFFFFF;stroke-width:4.895;stroke-miterlimit:10;}
	.st83{fill:#2B2B2B;}
	.st84{fill:none;stroke:#FFFFFF;stroke-width:4.9111;stroke-linecap:round;stroke-linejoin:round;}
	.st85{clip-path:url(#SVGID_16_);}
</style>
<g>
	<g>
		<path shape-rendering="crispEdges" class="st36" d="M41.3,10.6h117.4c19.5,0,35.2,15.8,35.2,35.2v108c0,19.5-15.8,35.2-35.2,35.2
			H41.3c-19.5,0-35.2-15.8-35.2-35.2v-108C6.1,26.4,21.8,10.6,41.3,10.6z"/>
	</g>
	<path class="st37" d="M84.9,78.3c-1.3,0-2.5,0.5-3.4,1.4c-0.9,0.9-1.4,2.1-1.4,3.4v33.4c0,1.3,0.5,2.5,1.4,3.4
		c0.9,0.9,2.1,1.4,3.4,1.4h33.4c1.3,0,2.5-0.5,3.4-1.4c0.9-0.9,1.4-2.1,1.4-3.4V83.1c0-1.3-0.5-2.5-1.4-3.4
		c-0.9-0.9-2.1-1.4-3.4-1.4H84.9z M149.4,99.8c0,26.4-21.4,47.8-47.8,47.8s-47.8-21.4-47.8-47.8c0-26.4,21.4-47.8,47.8-47.8
		S149.4,73.4,149.4,99.8z M143.4,99.8c0-23.1-18.7-41.8-41.8-41.8S59.8,76.7,59.8,99.8s18.7,41.8,41.8,41.8S143.4,122.8,143.4,99.8z
		"/>
</g>
</svg>
