<?xml version="1.0" encoding="utf-8"?>
<!-- Generator: Adobe Illustrator 23.0.0, SVG Export Plug-In . SVG Version: 6.00 Build 0)  -->
<svg version="1.1" id="Layer_1" xmlns="http://www.w3.org/2000/svg" xmlns:xlink="http://www.w3.org/1999/xlink" x="0px" y="0px"
	 viewBox="0 0 200 200" style="enable-background:new 0 0 200 200;" xml:space="preserve">
<style type="text/css">
	.st0{fill:#FFA800;}
	.st1{fill:#FFFFFF;}
</style>
<circle class="st0" cx="100" cy="97.6" r="98.2"/>
<path class="st1" d="M139.3,136.3v10.4l-8.8-5.8l-23.5-44.2c3.2-1,6.2-2.7,8.8-4.9L139.3,136.3z M114.7,73c0,8.1-6.6,14.7-14.7,14.7
	c0,0,0,0,0,0h-2.2l-28.3,53.2l-8.8,5.8v-10.4l28.4-53.4c-5.4-6.1-4.9-15.4,1.2-20.8c0,0,0,0,0,0c2.7-2.4,6.1-3.7,9.7-3.7v-9.8
	c2.7,0,4.9,2.2,4.9,4.9v5.8C110.8,61.2,114.7,66.8,114.7,73z M104.9,73c0-2.7-2.2-4.9-4.9-5c-2.7,0-4.9,2.2-5,4.9s2.2,4.9,4.9,5
	c1.3,0,2.6-0.5,3.5-1.4C104.4,75.5,104.9,74.3,104.9,73z"/>
</svg>
