<?xml version="1.0" encoding="utf-8"?>
<!-- Generator: Adobe Illustrator 23.0.0, SVG Export Plug-In . SVG Version: 6.00 Build 0)  -->
<svg version="1.1" id="Layer_1" xmlns="http://www.w3.org/2000/svg" xmlns:xlink="http://www.w3.org/1999/xlink" x="0px" y="0px"
	 viewBox="0 0 200 200" style="enable-background:new 0 0 200 200;" xml:space="preserve">
<style type="text/css">
	.st0{fill:#0038FF;}
	.st1{fill:#FFFFFF;}
</style>
<title>physics</title>
<circle class="st0" cx="99.8" cy="101.9" r="98.1"/>
<path class="st1" d="M156.2,101.9c0-12.1-11.4-22.5-28.6-27.8c-5.4-17.2-15.7-28.6-27.8-28.6c-17.9,0-31.9,24.8-31.9,56.4
	c0,7.4,0.8,14.8,2.4,22c-13.2-5-22-13-22-22c0-7.6,6.4-14.6,16.5-19.6c0.4-2.1,0.9-4.2,1.4-6.2c-14,5.8-22.9,15.1-22.9,25.8
	c0,12.1,11.4,22.4,28.6,27.8c5.4,17.2,15.7,28.6,27.8,28.6c10.7,0,20-8.9,25.8-22.8c-2,0.5-4.1,1-6.2,1.4
	c-5,10.1-11.9,16.5-19.6,16.5c-8.9,0-17-8.8-21.9-22c7.2,1.6,14.6,2.5,21.9,2.4C131.5,133.8,156.2,119.8,156.2,101.9z M72.8,101.9
	c0-27.9,12.3-51.5,27-51.5c8.9,0,17,8.8,22,22.1c-7.2-1.6-14.6-2.5-22-2.4c-5.4,0-10.8,0.4-16.2,1.3c-0.8,1.7-1.4,3.6-2.1,5.5
	c6-1.2,12.1-1.8,18.2-1.8c8,0,16,1.1,23.8,3.2c2.1,7.8,3.2,15.8,3.2,23.8c0,6.1-0.6,12.2-1.8,18.2c1.9-0.6,3.8-1.3,5.5-2.1
	c0.8-5.3,1.3-10.7,1.3-16.2c0-7.4-0.8-14.8-2.4-22c13.2,5,22.1,13,22.1,22c0,14.6-23.6,27-51.5,27c-8.1,0-16.1-1.1-23.9-3.2
	C73.9,117.9,72.8,109.9,72.8,101.9z"/>
<path class="st1" d="M99.8,116.6c8.1,0,14.7-6.6,14.7-14.7s-6.6-14.7-14.7-14.7s-14.7,6.6-14.7,14.7C85.1,110,91.7,116.6,99.8,116.6
	z"/>
</svg>
